<svg width="46" height="45" viewBox="0 0 46 45" fill="none" xmlns="http://www.w3.org/2000/svg">
<g clip-path="url(#clip0_185_3052)">
<path d="M22.6553 45C35.0817 45 45.1553 34.9264 45.1553 22.5C45.1553 10.0736 35.0817 0 22.6553 0C10.2289 0 0.155273 10.0736 0.155273 22.5C0.155273 34.9264 10.2289 45 22.6553 45Z" fill="#5CB9B8"/>
<path d="M17.2444 24.4452C17.4886 24.2013 17.7327 23.9575 17.9767 23.7141L20.35 26.1039C20.9156 26.7016 21.6922 27.055 22.5145 27.0885C22.9739 27.1115 23.4327 27.034 23.8591 26.8613C24.284 26.6893 24.6664 26.4269 24.9799 26.0924L27.3483 23.691C27.7486 24.0944 28.1407 24.4899 28.5288 24.8814C28.9356 25.2918 29.3382 25.6978 29.7415 26.1043C30.2955 26.6869 31.044 27.046 31.8454 27.1133L31.8454 27.1134L31.8557 27.1141C32.6521 27.1643 33.4371 26.905 34.0467 26.3902C34.6564 25.8754 35.0435 25.145 35.1274 24.3516C35.1282 24.3436 35.1289 24.3356 35.1293 24.3275C35.1675 23.6603 35.1661 22.9885 35.1648 22.3354C35.1646 22.2177 35.1643 22.1006 35.1643 21.9842C35.1711 21.1943 34.9616 20.4175 34.5588 19.7381C34.1513 19.0202 33.5538 18.4286 32.8319 18.0281C32.1117 17.6286 31.2956 17.4348 30.4728 17.468H24.4722V15.321C24.4722 15.0449 24.2483 14.821 23.9722 14.821H21.3213C21.0452 14.821 20.8213 15.0449 20.8213 15.321V17.467C20.1821 17.4669 19.5431 17.466 18.9042 17.465C17.5399 17.463 16.176 17.4611 14.8107 17.467C13.7112 17.4181 12.6326 17.7802 11.7853 18.4832C10.9346 19.1889 10.3783 20.1872 10.226 21.2821C10.225 21.289 10.2242 21.2959 10.2235 21.3028C10.1263 22.307 10.1161 23.3178 10.193 24.3237C10.2163 24.8114 10.3655 25.2847 10.6259 25.6977C10.8849 26.1082 11.245 26.4451 11.6717 26.6761C12.2799 27.0512 13 27.2024 13.708 27.1033C14.4167 27.0042 15.0684 26.6605 15.5504 26.132C16.1173 25.5711 16.6813 25.0077 17.2444 24.4452Z" fill="white" stroke="#535353" stroke-linejoin="round"/>
<path d="M34.8736 29.3904C35.0256 29.4737 35.1237 29.6298 35.1327 29.8029C35.1343 29.8329 35.1361 29.8636 35.138 29.8947C35.1431 29.9791 35.1483 30.0658 35.1483 30.145V30.156V30.167V30.178V30.1891V30.2001V30.2111V30.2221V30.2331V30.2442V30.2552V30.2662V30.2772V30.2883V30.2993V30.3103V30.3213V30.3324V30.3434V30.3544V30.3654V30.3764V30.3875V30.3985V30.4095V30.4205V30.4316V30.4426V30.4536V30.4646V30.4757V30.4867V30.4977V30.5087V30.5198V30.5308V30.5418V30.5528V30.5638V30.5749V30.5859V30.5969V30.6079V30.619V30.63V30.641V30.652V30.6631V30.6741V30.6851V30.6961V30.7071V30.7182V30.7292V30.7402V30.7512V30.7623V30.7733V30.7843V30.7953V30.8064V30.8174V30.8284V30.8394V30.8504V30.8615V30.8725V30.8835V30.8945V30.9056V30.9166V30.9276V30.9386V30.9496V30.9607V30.9717V30.9827V30.9937V31.0048V31.0158V31.0268V31.0378V31.0489V31.0599V31.0709V31.0819V31.0929V31.104V31.115V31.126V31.137V31.1481V31.1591V31.1701V31.1811V31.1922V31.2032V31.2142V31.2252V31.2362V31.2473V31.2583V31.2693V31.2803V31.2914V31.3024V31.3134V31.3244V31.3354V31.3465V31.3575V31.3685V31.3795V31.3906V31.4016V31.4126V31.4236V31.4346V31.4457V31.4567V31.4677V31.4787V31.4898V31.5008V31.5118V31.5228V31.5339V31.5449V31.5559V31.5669V31.5779V31.589V31.6V31.611V31.622V31.6331V31.6441V31.6551V31.6661V31.6771V31.6882V31.6992V31.7102V31.7212V31.7323V31.7433V31.7543V31.7653V31.7763V31.7874V31.7984V31.8094V31.8204V31.8315V31.8425V31.8535V31.8645V31.8755V31.8866V31.8976V31.9086V31.9196V31.9307V31.9417V31.9527V31.9637V31.9747V31.9858V31.9968V32.0078V32.0188V32.0299V32.0409V32.0519V32.0629V32.0739V32.085V32.096V32.107V32.118V32.1291V32.1401V32.1511V32.1621V32.1731V32.1842V32.1952V32.2062V32.2172V32.2283V32.2393V32.2503V32.2613V32.2723V32.2834V32.2944V32.3054V32.3164V32.3275V32.3385V32.3495V32.3605V32.3715V32.3826V32.3936V32.4046V32.4156V32.4266V32.4377V32.4487V32.4597V32.4707V32.4818V32.4928V32.5038V32.5148V32.5258V32.5369V32.5479V32.5589V32.5699V32.581V32.592V32.603V32.614V32.625V32.6361V32.6471V32.6581V32.6691V32.6801V32.6912V32.7022V32.7132V32.7242V32.7353V32.7463V32.7573V32.7683V32.7793V32.7904V32.8014V32.8124V32.8234V32.8345V32.8455V32.8565V32.8675V32.8785V32.8896V32.9006V32.9116V32.9226V32.9336V32.9447V32.9557V32.9667V32.9777V32.9888V32.9998V33.0108V33.0218V33.0328V33.0439V33.0549V33.0659V33.0769V33.0879V33.099V33.11V33.121V33.132V33.1431V33.1541V33.1651V33.1761V33.1871V33.1982V33.2092V33.2202V33.2312V33.2422V33.2533V33.2643V33.2753V33.2863V33.2974V33.3084V33.3194V33.3304V33.3414V33.3525V33.3635V33.3745V33.3855V33.3965V33.4076V33.4186V33.4296V33.4406V33.4516V33.4627V33.4737V33.4847V33.4957V33.5068V33.5178V33.5288V33.5398V33.5508V33.5619V33.5729V33.5839V33.5949V33.6059V33.617V33.628V33.639V33.65V33.6611V33.6721V33.6831V33.6941V33.7051V33.7162V33.7272V33.7382V33.7492V33.7602V33.7713V33.7823V33.7933V33.8043V33.8153V33.8264V33.8374V33.8484V33.8594V33.8704V33.8815V33.8925V33.9035V33.9145V33.9256V33.9366V33.9476V33.9586V33.9696V33.9807V33.9917V34.0027V34.0137V34.0247V34.0358V34.0468V34.0578V34.0688V34.0798V34.0909V34.1019V34.1129V34.1239V34.1349V34.146V34.157V34.168V34.179V34.1901V34.2011V34.2121V34.2231V34.2341V34.2452V34.2562V34.2672V34.2782V34.2892V34.3003V34.3113V34.3223V34.3333V34.3443V34.3554V34.3664V34.3774V34.3884V34.3994V34.4105V34.4215V34.4325V34.4435V34.4545V34.4656V34.4766V34.4876V34.4986V34.5096V34.5207V34.5317V34.5427V34.5537V34.5647V34.5758V34.5868V34.5978V34.6088V34.6199V34.6309V34.6419V34.6529V34.6639V34.675V34.686V34.697V34.708V34.719V34.7301V34.7411V34.7521V34.7631V34.7741V34.7852V34.7962V34.8072V34.8182V34.8292V34.8403V34.8513V34.8623V34.8733V34.8843V34.8954V34.9064V34.9174V34.9284V34.9394V34.9505V34.9615V34.9725V34.9835V34.9945V35.0056V35.0166V35.0276V35.0386V35.0496V35.0607V35.0717V35.0827V35.0937V35.1047V35.1158V35.1268V35.1378V35.1488V35.1598V35.1709V35.1819V35.1929V35.2039V35.2149V35.226V35.237V35.248V35.259V35.27V35.2811V35.2921V35.3031V35.3141V35.3251V35.3362V35.3472V35.3582V35.3692V35.3802V35.3913V35.4023V35.4133V35.4243V35.4353V35.4464V35.4574V35.4684V35.4794V35.4904V35.5015V35.5125V35.5235V35.5345V35.5455V35.5566V35.5676V35.5786V35.5896V35.6006V35.6117V35.6227V35.6337V35.6447V35.6557V35.6667V35.6778V35.6888V35.6998V35.7108V35.7218V35.7329V35.7439V35.7549V35.7598C35.1767 36.0305 35.1453 36.3045 35.056 36.5622C34.9631 36.8301 34.8102 37.0732 34.6087 37.273C34.4072 37.4727 34.1626 37.6236 33.894 37.7142C33.6364 37.801 33.3631 37.8303 33.0932 37.8H12.1799C11.762 37.8397 11.3426 37.7354 10.9917 37.504C10.6324 37.267 10.3674 36.9118 10.2427 36.4998L10.2402 36.4916L10.2403 36.4916C10.1807 36.2817 10.1513 36.0648 10.1524 35.8472M34.8736 29.3904L10.6524 35.848M34.8736 29.3904C34.7215 29.3072 34.5372 29.3086 34.3865 29.3942C34.2858 29.4514 34.2185 29.4914 34.159 29.5269C34.0985 29.5629 34.0459 29.5942 33.9742 29.634M34.8736 29.3904L33.9742 29.634M10.1524 35.8472C10.1524 35.8464 10.1524 35.8456 10.1524 35.8448L10.6524 35.848M10.1524 35.8472C10.1524 35.8479 10.1524 35.8486 10.1524 35.8493L10.6524 35.848M10.1524 35.8472C10.1471 33.9177 10.1471 31.9885 10.1524 30.0596M10.6524 35.848C10.6474 34.0291 10.6471 32.2106 10.6516 30.3924C10.6273 30.3796 10.603 30.3669 10.5761 30.3528C10.5373 30.3326 10.4932 30.3096 10.4364 30.2794L10.5526 30.061H10.1524C10.1524 30.0605 10.1524 30.0601 10.1524 30.0596M10.1524 30.0596C10.1526 29.9917 10.1627 29.8959 10.1688 29.8375C10.1707 29.8197 10.1722 29.8054 10.173 29.7964C10.1869 29.6289 10.2842 29.4795 10.4318 29.399C10.5794 29.3185 10.7577 29.3176 10.9061 29.3966C10.9454 29.4174 10.9861 29.4387 11.026 29.4596C11.0816 29.4887 11.1356 29.5169 11.1813 29.5418C11.1878 29.5453 11.1942 29.549 11.2006 29.5529C11.7293 29.872 12.3246 30.0649 12.94 30.1168C13.5554 30.1686 14.1744 30.0779 14.7491 29.8517L14.7524 29.8504L14.7524 29.8504C15.3088 29.6359 15.8104 29.2997 16.22 28.8664L16.2267 28.8594L16.2268 28.8594L17.5727 27.4904C17.7614 27.2985 18.0682 27.2904 18.2668 27.472C18.2875 27.4909 18.3089 27.5103 18.3308 27.5301C18.3946 27.5878 18.4618 27.6485 18.5222 27.7088C18.6806 27.8645 18.8333 28.0179 18.9837 28.169C19.2809 28.4677 19.5689 28.7572 19.8742 29.0365C20.6461 29.7214 21.6441 30.0965 22.6761 30.0894C23.7086 30.0823 24.7019 29.6932 25.4645 28.9973C25.8098 28.6763 26.1244 28.338 26.4586 27.9786C26.6157 27.8096 26.7772 27.636 26.9482 27.4573C27.0413 27.36 27.1697 27.3044 27.3043 27.303C27.4389 27.3016 27.5684 27.3546 27.6635 27.4499L29.0504 28.8409L29.06 28.8505L29.0599 28.8507C29.7926 29.6265 30.8009 30.0829 31.8672 30.1213L31.8715 30.1215C32.6037 30.1542 33.3311 29.9856 33.9742 29.634M10.1524 30.0596L33.9742 29.634M34.6483 30.3992V35.788C34.6736 35.9937 34.6515 36.2025 34.5836 36.3984C34.5157 36.5942 34.4039 36.772 34.2567 36.9179C34.1095 37.0639 33.9307 37.1742 33.7342 37.2404C33.5378 37.3066 33.3289 37.327 33.1234 37.3H12.1544C11.8428 37.3347 11.5287 37.2592 11.2669 37.0865C11.0052 36.9139 10.8121 36.6551 10.7213 36.355L34.6483 30.3992ZM34.6483 30.3992C34.6623 30.391 34.6764 30.3827 34.6904 30.3745C34.7588 30.3342 34.8264 30.2944 34.8803 30.2638L34.8128 30.145L34.6334 29.829M34.6483 30.3992L34.6334 29.829M34.6334 29.829L34.1341 29.8551C34.1355 29.8833 34.137 29.9084 34.1383 29.9309L34.6334 29.829ZM11.1523 30.1002C11.1524 30.0876 11.1524 30.075 11.1524 30.0624H11.1524V30.061C11.1524 30.0426 11.1534 30.0352 11.1557 30.0171C11.1583 29.9964 11.1627 29.9614 11.1695 29.8795L11.0114 29.8663L11.0049 29.8658L10.6712 29.838L10.5527 30.0607L11.1523 30.1002ZM11.1523 30.1002C11.6925 30.388 12.2864 30.5635 12.898 30.615C13.59 30.6733 14.286 30.5713 14.9322 30.317C15.5582 30.0756 16.1224 29.6974 16.5833 29.21L11.1523 30.1002Z" fill="#FFF24E" stroke="#535353" stroke-linejoin="round"/>
<path d="M22.6521 4C22.7031 4.076 22.7519 4.13395 22.7839 4.19995C23.4909 5.42095 24.2009 6.63999 24.8999 7.86499C25.2203 8.35795 25.3655 8.94437 25.3122 9.52991C25.2589 10.1154 25.0102 10.666 24.6059 11.093C24.2611 11.4884 23.8032 11.7687 23.2942 11.8958C22.7851 12.023 22.2493 11.9909 21.759 11.804C21.2907 11.6356 20.8789 11.3394 20.5703 10.949C20.2617 10.5585 20.0686 10.0895 20.0129 9.59497C19.9464 9.0414 20.0578 8.48105 20.331 7.995C21.073 6.695 21.824 5.40196 22.572 4.10596C22.5962 4.06885 22.623 4.03348 22.6521 4Z" fill="white"/>
</g>
<defs>
<clipPath id="clip0_185_3052">
<rect width="45" height="45" fill="white" transform="translate(0.155273)"/>
</clipPath>
</defs>
</svg>
