<svg width="1188" height="190" viewBox="0 0 1188 190" fill="none" xmlns="http://www.w3.org/2000/svg">
<g filter="url(#filter0_d_144_28403)">
<rect x="4" width="1180" height="182" rx="80" fill="#A47FD3"/>
<path d="M96.2495 97.3291V43.8921C96.2495 42.3389 97.5087 41.0797 99.062 41.0797H104.687H111.015H117.343H123.671H129.999H136.327H142.655H148.28C149.833 41.0797 151.093 42.3389 151.093 43.8921V97.3291C151.093 98.8823 149.833 100.142 148.28 100.142H99.062C97.5087 100.142 96.2495 98.8823 96.2495 97.3291Z" fill="white"/>
<path d="M104.687 44.5953V37.5641M111.015 44.5953V37.5641M117.343 44.5953V37.5641M123.671 44.5953V37.5641M129.999 44.5953V37.5641M136.327 44.5953V37.5641M142.655 44.5953V37.5641M104.687 57.9545H143.358M104.687 62.1732H131.405M104.687 66.3919H138.437M104.687 70.6106H143.358M104.687 74.8293H131.405M104.687 79.048H138.437M96.2495 43.8921V97.3291C96.2495 98.8823 97.5087 100.142 99.062 100.142H148.28C149.833 100.142 151.093 98.8823 151.093 97.3291V43.8921C151.093 42.3389 149.833 41.0797 148.28 41.0797H99.062C97.5087 41.0797 96.2495 42.3389 96.2495 43.8921Z" stroke="#535353" stroke-width="2" stroke-linecap="round" stroke-linejoin="round"/>
<path d="M144.879 150.892V96.3163C144.879 93.9583 142.967 92.0468 140.609 92.0468H92.791H44.9728C42.6149 92.0468 40.7034 93.9583 40.7034 96.3163V150.892C40.7034 153.291 42.6477 155.235 45.0461 155.235H86.3867C87.0941 155.235 87.6676 155.809 87.6676 156.516C87.6676 157.223 88.241 157.797 88.9484 157.797H96.6335C97.3409 157.797 97.9143 157.223 97.9143 156.516C97.9143 155.809 98.4878 155.235 99.1952 155.235H140.536C142.934 155.235 144.879 153.291 144.879 150.892Z" fill="white"/>
<path d="M92.791 88.6312V151.819M44.9728 92.0468V92.0468C42.6149 92.0468 40.7034 93.9583 40.7034 96.3163V150.892C40.7034 153.291 42.6477 155.235 45.0461 155.235H86.3867C87.0941 155.235 87.6676 155.808 87.6676 156.516V156.516C87.6676 157.223 88.241 157.797 88.9484 157.797H96.6335C97.3409 157.797 97.9143 157.223 97.9143 156.516V156.516C97.9143 155.808 98.4878 155.235 99.1952 155.235H140.536C142.934 155.235 144.879 153.291 144.879 150.892V96.3163C144.879 93.9583 142.967 92.0468 140.609 92.0468V92.0468H44.9728Z" stroke="#535353" stroke-width="2"/>
<path d="M44.9729 91.2473C44.9729 89.6894 45.9861 88.3045 47.4781 87.8562C64.3001 82.8019 74.6054 82.9003 92.0945 88.6311V151.819C75.3152 145.545 65.1553 144.663 49.9242 149.957C47.5326 150.789 44.9729 149.062 44.9729 146.53V91.2473Z" fill="#FFF24E"/>
<path d="M93.4911 88.6311C110.722 82.5938 121.011 82.5166 138.135 87.8404C139.611 88.2994 140.609 89.6765 140.609 91.2223V146.977C140.609 149.383 138.278 151.097 135.955 150.469C120.375 146.257 110.227 146.915 93.4911 151.819V88.6311Z" fill="#FFF24E"/>
<path d="M160.474 83.9698C152.84 83.9698 146.652 77.7961 146.652 70.1804C146.652 64.7832 149.76 60.1102 154.288 57.8457C155.156 57.4114 155.652 56.5614 155.652 55.5904L155.652 52.8706L158.769 52.8706L162.201 52.8706L165.295 52.8706L165.295 55.5904C165.295 56.5614 165.791 57.4114 166.66 57.8457C171.187 60.1102 174.296 64.7832 174.296 70.1804C174.296 77.7961 168.107 83.9698 160.474 83.9698Z" fill="#FFF24E"/>
<path d="M154.288 57.8457L153.84 56.9513L153.84 56.9513L154.288 57.8457ZM155.652 52.8706L154.652 52.8706L154.652 51.8706L155.652 51.8706L155.652 52.8706ZM166.66 57.8457L167.107 56.9513L167.107 56.9513L166.66 57.8457ZM165.295 52.8706L165.295 51.8706L166.295 51.8706L166.295 52.8706L165.295 52.8706ZM147.652 70.1804C147.652 77.2416 153.39 82.9698 160.474 82.9698L160.474 84.9698C152.29 84.9698 145.652 78.3506 145.652 70.1804L147.652 70.1804ZM154.735 58.7401C150.532 60.8422 147.652 65.1773 147.652 70.1804L145.652 70.1804C145.652 64.3891 148.988 59.3783 153.84 56.9513L154.735 58.7401ZM154.652 55.5904L154.652 52.8706L156.652 52.8706L156.652 55.5904L154.652 55.5904ZM175.296 70.1804C175.296 78.3506 168.657 84.9698 160.474 84.9698L160.474 82.9698C167.557 82.9698 173.296 77.2416 173.296 70.1804L175.296 70.1804ZM167.107 56.9513C171.96 59.3783 175.296 64.3891 175.296 70.1804L173.296 70.1804C173.296 65.1773 170.415 60.8422 166.212 58.7401L167.107 56.9513ZM164.295 55.5904L164.295 52.8706L166.295 52.8706L166.295 55.5904L164.295 55.5904ZM165.295 53.8706L162.201 53.8706L162.201 51.8706L165.295 51.8706L165.295 53.8706ZM162.201 53.8706L158.769 53.8706L158.769 51.8706L162.201 51.8706L162.201 53.8706ZM158.769 53.8706L155.652 53.8706L155.652 51.8706L158.769 51.8706L158.769 53.8706ZM166.212 58.7401C164.986 58.1268 164.295 56.9182 164.295 55.5904L166.295 55.5904C166.295 56.2045 166.596 56.696 167.107 56.9513L166.212 58.7401ZM153.84 56.9513C154.351 56.696 154.652 56.2045 154.652 55.5904L156.652 55.5904C156.652 56.9182 155.961 58.1268 154.735 58.7401L153.84 56.9513Z" fill="#FFF24E"/>
<path d="M155.638 52.5697V53.5697C155.085 53.5697 154.638 53.122 154.638 52.5697H155.638ZM155.638 47.5017H154.638H155.638ZM156.978 46.1617V45.1617V46.1617ZM157.239 46.1617V47.1617V46.1617ZM158.289 45.2981L159.271 45.4914L159.271 45.4914L158.289 45.2981ZM158.343 45.0277L157.362 44.8344L157.362 44.8344L158.343 45.0277ZM165.281 52.5697L166.281 52.5697C166.281 52.8349 166.175 53.0893 165.988 53.2768C165.8 53.4643 165.546 53.5697 165.281 53.5697V52.5697ZM165.281 47.5017H164.281H165.281ZM163.941 46.1617L163.941 47.1617H163.941V46.1617ZM163.515 46.1617V45.1617V46.1617ZM162.464 45.2981L163.445 45.1048V45.1048L162.464 45.2981ZM162.411 45.0277L163.392 44.8344L162.411 45.0277ZM154.208 69.2571L153.242 68.9987L154.208 69.2571ZM166.566 69.2496L167.533 68.9912L167.533 68.9912L166.566 69.2496ZM154.418 70.4022L155.23 69.8178L155.23 69.8178L154.418 70.4022ZM154.988 71.1937L154.177 71.7781V71.7781L154.988 71.1937ZM156.244 71.1164L155.367 70.636L155.367 70.636L156.244 71.1164ZM156.322 70.9745L157.199 71.4549L157.199 71.4549L156.322 70.9745ZM163.252 71.0078L162.358 70.5606L162.358 70.5605L163.252 71.0078ZM163.266 70.9805L164.16 71.4277L164.16 71.4278L163.266 70.9805ZM164.435 70.9621L165.314 70.487L165.314 70.487L164.435 70.9621ZM164.514 71.1102L163.635 71.5853L163.635 71.5853L164.514 71.1102ZM165.774 71.1957L166.581 71.7854H166.581L165.774 71.1957ZM166.35 70.406L167.158 70.9957H167.158L166.35 70.406ZM160.954 71.013L160.062 70.5607H160.062L160.954 71.013ZM162.103 71.011L162.994 70.5587L162.994 70.5587L162.103 71.011ZM157.492 71.0039L158.384 70.5516L157.492 71.0039ZM160.276 31.6305L161.276 31.6305V31.6305H160.276ZM156.978 45.1617H157.239V47.1617H156.978V45.1617ZM157.308 45.1048L157.362 44.8344L159.324 45.2209L159.271 45.4914L157.308 45.1048ZM163.941 47.1617H163.515V45.1617H163.941V47.1617ZM161.483 45.4914L161.43 45.2209L163.392 44.8344L163.445 45.1048L161.483 45.4914ZM165.281 53.5697H162.105V51.5697H165.281V53.5697ZM162.105 53.5697H158.672V51.5697H162.105V53.5697ZM158.672 53.5697H155.638V51.5697H158.672V53.5697ZM159.638 52.8281L155.174 69.5156L153.242 68.9987L157.706 52.3113L159.638 52.8281ZM163.071 52.3113L167.533 68.9912L165.6 69.508L161.139 52.8281L163.071 52.3113ZM155.23 69.8178L155.8 70.6094L154.177 71.7781L153.607 70.9866L155.23 69.8178ZM155.367 70.636L155.445 70.4941L157.199 71.4549L157.121 71.5968L155.367 70.636ZM162.358 70.5605L162.371 70.5333L164.16 71.4278L164.146 71.455L162.358 70.5605ZM165.314 70.487L165.394 70.635L163.635 71.5853L163.555 71.4373L165.314 70.487ZM164.966 70.6059L165.543 69.8162L167.158 70.9957L166.581 71.7854L164.966 70.6059ZM160.062 70.5607C160.668 69.3664 162.383 69.3528 162.994 70.5587L161.211 71.4633C161.346 71.7295 161.717 71.7199 161.846 71.4654L160.062 70.5607ZM157.757 70.5628C158.367 69.3609 160.083 69.3609 160.693 70.5628L158.909 71.4674C159.04 71.7261 159.41 71.7261 159.541 71.4674L157.757 70.5628ZM158.384 70.5516C158.32 70.4266 158.192 70.3646 158.083 70.3632C157.97 70.3619 157.827 70.4253 157.757 70.5628L159.541 71.4674C158.915 72.701 157.193 72.626 156.6 71.4562L158.384 70.5516ZM155.445 70.4941C156.101 69.295 157.796 69.3921 158.384 70.5516L156.6 71.4562C156.66 71.5747 156.781 71.6347 156.885 71.6376C156.992 71.6406 157.128 71.5832 157.199 71.4549L155.445 70.4941ZM167.533 68.9912C167.717 69.6816 167.58 70.4186 167.158 70.9957L165.543 69.8162C165.608 69.7275 165.629 69.6142 165.6 69.508L167.533 68.9912ZM155.174 69.5156C155.147 69.6195 155.167 69.7305 155.23 69.8178L153.607 70.9866C153.193 70.4122 153.059 69.6825 153.242 68.9987L155.174 69.5156ZM161.43 45.2209C161.378 44.9574 161.203 44.6279 160.94 44.3668C160.671 44.1008 160.423 44.0133 160.276 44.0133L160.276 42.0133C161.119 42.0133 161.843 42.4471 162.347 42.9453C162.855 43.4484 163.253 44.1261 163.392 44.8344L161.43 45.2209ZM163.515 47.1617C162.525 47.1617 161.674 46.4619 161.483 45.4914L163.445 45.1048C163.452 45.1378 163.481 45.1617 163.515 45.1617V47.1617ZM155.8 70.6094C155.69 70.4563 155.457 70.4706 155.367 70.636L157.121 71.5968C156.505 72.7216 154.926 72.8188 154.177 71.7781L155.8 70.6094ZM164.281 47.5017C164.281 47.3139 164.128 47.1617 163.941 47.1617L163.941 45.1617C165.233 45.1617 166.281 46.2093 166.281 47.5017H164.281ZM165.394 70.635C165.306 70.4708 165.076 70.4553 164.966 70.6059L166.581 71.7854C165.824 72.8223 164.245 72.715 163.635 71.5853L165.394 70.635ZM157.362 44.8344C157.489 44.1877 157.798 43.52 158.258 42.9962C158.719 42.4719 159.407 42.0133 160.276 42.0133L160.276 44.0133C160.154 44.0133 159.972 44.076 159.761 44.3159C159.55 44.5563 159.388 44.8957 159.324 45.2209L157.362 44.8344ZM162.371 70.5333C162.972 69.3321 164.676 69.3053 165.314 70.487L163.555 71.4373C163.686 71.6804 164.036 71.6748 164.16 71.4277L162.371 70.5333ZM157.239 45.1617C157.273 45.1617 157.302 45.1378 157.308 45.1048L159.271 45.4914C159.079 46.4619 158.228 47.1617 157.239 47.1617V45.1617ZM162.994 70.5587C162.862 70.2975 162.489 70.2986 162.358 70.5606L164.146 71.455C163.543 72.6624 161.821 72.6673 161.211 71.4633L162.994 70.5587ZM154.638 47.5017C154.638 46.2093 155.685 45.1617 156.978 45.1617V47.1617C156.79 47.1617 156.638 47.3139 156.638 47.5017H154.638ZM160.693 70.5628C160.559 70.2983 160.19 70.3078 160.062 70.5607L161.846 71.4654C161.239 72.6614 159.522 72.675 158.909 71.4674L160.693 70.5628ZM159.276 43.0133V31.6305H161.276V43.0133H159.276ZM159.276 31.6305L159.276 23.5L161.276 23.5L161.276 31.6305L159.276 31.6305ZM154.638 52.5697L154.638 47.5017H156.638L156.638 52.5697L154.638 52.5697ZM164.281 52.5697L164.281 47.5017H166.281L166.281 52.5697L164.281 52.5697Z" fill="#535353"/>
<path d="M84.9922 43.9728L58.2794 70.3766L50.988 76.0644C49.9848 76.847 48.6954 75.5425 49.4896 74.5484L55.2619 67.3237L80.4482 42.4287C81.2913 41.5954 82.6502 41.6033 83.4835 42.4464L84.9922 43.9728Z" fill="white"/>
<path d="M58.2794 70.3766L84.9922 43.9728M58.2794 70.3766L50.988 76.0644C49.9848 76.847 48.6954 75.5425 49.4896 74.5484L55.2619 67.3237M58.2794 70.3766L55.2619 67.3237M84.9922 43.9728L85.7466 44.736C86.5799 45.5791 86.572 46.938 85.729 47.7713L78.0967 55.3152M84.9922 43.9728L83.4835 42.4464C82.6502 41.6033 81.2913 41.5954 80.4482 42.4287L55.2619 67.3237" stroke="#535353" stroke-width="2" stroke-linecap="round" stroke-linejoin="round"/>
<path d="M101.874 105.72C112.492 102.938 120.896 103.001 131.744 105.72" stroke="#535353" stroke-width="2" stroke-linecap="round" stroke-linejoin="round"/>
<path d="M82.5259 105.72C71.9084 102.938 63.5042 103.001 52.6565 105.72" stroke="#535353" stroke-width="2" stroke-linecap="round" stroke-linejoin="round"/>
<path d="M101.874 112.751C112.492 109.969 120.896 110.032 131.744 112.751" stroke="#A47FD3" stroke-width="2" stroke-linecap="round" stroke-linejoin="round"/>
<path d="M82.5259 112.751C71.9084 109.969 63.5042 110.032 52.6565 112.751" stroke="#A47FD3" stroke-width="2" stroke-linecap="round" stroke-linejoin="round"/>
<path d="M101.874 116.97C112.492 114.188 120.896 114.251 131.744 116.97" stroke="#A47FD3" stroke-width="2" stroke-linecap="round" stroke-linejoin="round"/>
<path d="M82.5259 116.97C71.9084 114.188 63.5042 114.251 52.6565 116.97" stroke="#A47FD3" stroke-width="2" stroke-linecap="round" stroke-linejoin="round"/>
<path d="M101.874 121.189C112.492 118.407 120.896 118.47 131.744 121.189" stroke="#A47FD3" stroke-width="2" stroke-linecap="round" stroke-linejoin="round"/>
<path d="M82.5259 121.189C71.9084 118.407 63.5042 118.47 52.6565 121.189" stroke="#A47FD3" stroke-width="2" stroke-linecap="round" stroke-linejoin="round"/>
<path d="M101.874 125.406C112.492 122.624 120.896 122.687 131.744 125.406" stroke="#A47FD3" stroke-width="2" stroke-linecap="round" stroke-linejoin="round"/>
<path d="M82.5259 125.406C71.9084 122.624 63.5042 122.687 52.6565 125.406" stroke="#A47FD3" stroke-width="2" stroke-linecap="round" stroke-linejoin="round"/>
<path d="M48.4377 79.046C47.2658 80.6866 46.0471 83.8272 50.547 83.2647C56.172 82.5616 78.6717 63.5773 87.8122 70.6085C96.9528 77.6397 87.1091 85.3737 87.1091 85.3737" stroke="#FFF24E" stroke-width="2" stroke-linecap="round" stroke-linejoin="round"/>
<g opacity="0.5">
<path d="M1075.41 137.954C1075.41 139.502 1074.77 140.791 1073.92 140.791C1073.14 140.791 1072.43 139.502 1072.43 137.954C1072.43 136.407 1073.07 135.118 1073.92 135.118C1074.77 135.118 1075.41 136.407 1075.41 137.954Z" fill="white"/>
<path d="M1084.41 137.954C1084.41 139.502 1083.77 140.791 1082.92 140.791C1082.14 140.791 1081.43 139.502 1081.43 137.954C1081.43 136.407 1082.07 135.118 1082.92 135.118C1083.7 135.118 1084.41 136.407 1084.41 137.954Z" fill="white"/>
<path d="M1093.42 137.954C1093.42 139.502 1092.78 140.791 1091.93 140.791C1091.15 140.791 1090.44 139.502 1090.44 137.954C1090.44 136.407 1091.08 135.118 1091.93 135.118C1092.71 135.118 1093.42 136.407 1093.42 137.954Z" fill="white"/>
<path d="M1102.35 137.954C1102.35 139.502 1101.71 140.791 1100.86 140.791C1100.08 140.791 1099.37 139.502 1099.37 137.954C1099.37 136.407 1100.01 135.118 1100.86 135.118C1101.71 135.118 1102.35 136.407 1102.35 137.954Z" fill="white"/>
<path d="M1111.36 137.954C1111.36 139.502 1110.72 140.791 1109.87 140.791C1109.09 140.791 1108.38 139.502 1108.38 137.954C1108.38 136.407 1109.02 135.118 1109.87 135.118C1110.72 135.118 1111.36 136.407 1111.36 137.954Z" fill="white"/>
<path d="M1120.36 137.954C1120.36 139.502 1119.72 140.791 1118.87 140.791C1118.09 140.791 1117.38 139.502 1117.38 137.954C1117.38 136.407 1118.02 135.118 1118.87 135.118C1119.72 135.118 1120.36 136.407 1120.36 137.954Z" fill="white"/>
<path d="M1075.41 154.458C1075.41 156.005 1074.77 157.295 1073.92 157.295C1073.14 157.295 1072.43 156.005 1072.43 154.458C1072.43 152.911 1073.07 151.622 1073.92 151.622C1074.77 151.622 1075.41 152.911 1075.41 154.458Z" fill="white"/>
<path d="M1084.41 154.458C1084.41 156.005 1083.77 157.295 1082.92 157.295C1082.14 157.295 1081.43 156.005 1081.43 154.458C1081.43 152.911 1082.07 151.622 1082.92 151.622C1083.7 151.622 1084.41 152.911 1084.41 154.458Z" fill="white"/>
<path d="M1093.42 154.458C1093.42 156.005 1092.78 157.295 1091.93 157.295C1091.15 157.295 1090.44 156.005 1090.44 154.458C1090.44 152.911 1091.08 151.622 1091.93 151.622C1092.71 151.622 1093.42 152.911 1093.42 154.458Z" fill="white"/>
<path d="M1102.35 154.458C1102.35 156.005 1101.71 157.295 1100.86 157.295C1100.08 157.295 1099.37 156.005 1099.37 154.458C1099.37 152.911 1100.01 151.622 1100.86 151.622C1101.71 151.622 1102.35 152.911 1102.35 154.458Z" fill="white"/>
<path d="M1111.36 154.458C1111.36 156.005 1110.72 157.295 1109.87 157.295C1109.09 157.295 1108.38 156.005 1108.38 154.458C1108.38 152.911 1109.02 151.622 1109.87 151.622C1110.72 151.622 1111.36 152.911 1111.36 154.458Z" fill="white"/>
<path d="M1120.36 154.458C1120.36 156.005 1119.72 157.295 1118.87 157.295C1118.09 157.295 1117.38 156.005 1117.38 154.458C1117.38 152.911 1118.02 151.622 1118.87 151.622C1119.72 151.622 1120.36 152.911 1120.36 154.458Z" fill="white"/>
<path d="M1075.41 170.962C1075.41 172.509 1074.77 173.799 1073.92 173.799C1073.14 173.799 1072.43 172.509 1072.43 170.962C1072.43 169.415 1073.07 168.125 1073.92 168.125C1074.77 168.125 1075.41 169.415 1075.41 170.962Z" fill="white"/>
<path d="M1084.41 170.962C1084.41 172.509 1083.77 173.799 1082.92 173.799C1082.14 173.799 1081.43 172.509 1081.43 170.962C1081.43 169.415 1082.07 168.125 1082.92 168.125C1083.7 168.125 1084.41 169.415 1084.41 170.962Z" fill="white"/>
<path d="M1093.42 170.962C1093.42 172.509 1092.78 173.799 1091.93 173.799C1091.15 173.799 1090.44 172.509 1090.44 170.962C1090.44 169.415 1091.08 168.125 1091.93 168.125C1092.71 168.125 1093.42 169.415 1093.42 170.962Z" fill="white"/>
<path d="M1102.35 170.962C1102.35 172.509 1101.71 173.799 1100.86 173.799C1100.08 173.799 1099.37 172.509 1099.37 170.962C1099.37 169.415 1100.01 168.125 1100.86 168.125C1101.71 168.125 1102.35 169.415 1102.35 170.962Z" fill="white"/>
<path d="M1111.36 170.962C1111.36 172.509 1110.72 173.799 1109.87 173.799C1109.09 173.799 1108.38 172.509 1108.38 170.962C1108.38 169.415 1109.02 168.125 1109.87 168.125C1110.72 168.125 1111.36 169.415 1111.36 170.962Z" fill="white"/>
<path d="M1120.36 170.962C1120.36 172.509 1119.72 173.799 1118.87 173.799C1118.09 173.799 1117.38 172.509 1117.38 170.962C1117.38 169.415 1118.02 168.125 1118.87 168.125C1119.72 168.125 1120.36 169.415 1120.36 170.962Z" fill="white"/>
<path d="M1022.05 137.954C1022.05 139.502 1021.41 140.791 1020.56 140.791C1019.78 140.791 1019.07 139.502 1019.07 137.954C1019.07 136.407 1019.71 135.118 1020.56 135.118C1021.41 135.118 1022.05 136.407 1022.05 137.954Z" fill="white"/>
<path d="M1031.05 137.954C1031.05 139.502 1030.42 140.791 1029.57 140.791C1028.79 140.791 1028.08 139.502 1028.08 137.954C1028.08 136.407 1028.71 135.118 1029.57 135.118C1030.35 135.118 1031.05 136.407 1031.05 137.954Z" fill="white"/>
<path d="M1040.06 137.954C1040.06 139.502 1039.42 140.791 1038.57 140.791C1037.79 140.791 1037.08 139.502 1037.08 137.954C1037.08 136.407 1037.72 135.118 1038.57 135.118C1039.35 135.118 1040.06 136.407 1040.06 137.954Z" fill="white"/>
<path d="M1048.99 137.954C1048.99 139.502 1048.36 140.791 1047.51 140.791C1046.73 140.791 1046.02 139.502 1046.02 137.954C1046.02 136.407 1046.65 135.118 1047.51 135.118C1048.36 135.118 1048.99 136.407 1048.99 137.954Z" fill="white"/>
<path d="M1058 137.954C1058 139.502 1057.36 140.791 1056.51 140.791C1055.73 140.791 1055.02 139.502 1055.02 137.954C1055.02 136.407 1055.66 135.118 1056.51 135.118C1057.36 135.118 1058 136.407 1058 137.954Z" fill="white"/>
<path d="M1067 137.954C1067 139.502 1066.37 140.791 1065.52 140.791C1064.74 140.791 1064.03 139.502 1064.03 137.954C1064.03 136.407 1064.67 135.118 1065.52 135.118C1066.37 135.118 1067 136.407 1067 137.954Z" fill="white"/>
<path d="M1022.05 154.458C1022.05 156.005 1021.41 157.295 1020.56 157.295C1019.78 157.295 1019.07 156.005 1019.07 154.458C1019.07 152.911 1019.71 151.622 1020.56 151.622C1021.41 151.622 1022.05 152.911 1022.05 154.458Z" fill="white"/>
<path d="M1031.05 154.458C1031.05 156.005 1030.42 157.295 1029.57 157.295C1028.79 157.295 1028.08 156.005 1028.08 154.458C1028.08 152.911 1028.71 151.622 1029.57 151.622C1030.35 151.622 1031.05 152.911 1031.05 154.458Z" fill="white"/>
<path d="M1040.06 154.458C1040.06 156.005 1039.42 157.295 1038.57 157.295C1037.79 157.295 1037.08 156.005 1037.08 154.458C1037.08 152.911 1037.72 151.622 1038.57 151.622C1039.35 151.622 1040.06 152.911 1040.06 154.458Z" fill="white"/>
<path d="M1048.99 154.458C1048.99 156.005 1048.36 157.295 1047.51 157.295C1046.73 157.295 1046.02 156.005 1046.02 154.458C1046.02 152.911 1046.65 151.622 1047.51 151.622C1048.36 151.622 1048.99 152.911 1048.99 154.458Z" fill="white"/>
<path d="M1058 154.458C1058 156.005 1057.36 157.295 1056.51 157.295C1055.73 157.295 1055.02 156.005 1055.02 154.458C1055.02 152.911 1055.66 151.622 1056.51 151.622C1057.36 151.622 1058 152.911 1058 154.458Z" fill="white"/>
<path d="M1067 154.458C1067 156.005 1066.37 157.295 1065.52 157.295C1064.74 157.295 1064.03 156.005 1064.03 154.458C1064.03 152.911 1064.67 151.622 1065.52 151.622C1066.37 151.622 1067 152.911 1067 154.458Z" fill="white"/>
<path d="M1022.05 170.962C1022.05 172.509 1021.41 173.799 1020.56 173.799C1019.78 173.799 1019.07 172.509 1019.07 170.962C1019.07 169.415 1019.71 168.125 1020.56 168.125C1021.41 168.125 1022.05 169.415 1022.05 170.962Z" fill="white"/>
<path d="M1031.05 170.962C1031.05 172.509 1030.42 173.799 1029.57 173.799C1028.79 173.799 1028.08 172.509 1028.08 170.962C1028.08 169.415 1028.71 168.125 1029.57 168.125C1030.35 168.125 1031.05 169.415 1031.05 170.962Z" fill="white"/>
<path d="M1040.06 170.962C1040.06 172.509 1039.42 173.799 1038.57 173.799C1037.79 173.799 1037.08 172.509 1037.08 170.962C1037.08 169.415 1037.72 168.125 1038.57 168.125C1039.35 168.125 1040.06 169.415 1040.06 170.962Z" fill="white"/>
<path d="M1048.99 170.962C1048.99 172.509 1048.36 173.799 1047.51 173.799C1046.73 173.799 1046.02 172.509 1046.02 170.962C1046.02 169.415 1046.65 168.125 1047.51 168.125C1048.36 168.125 1048.99 169.415 1048.99 170.962Z" fill="white"/>
<path d="M1058 170.962C1058 172.509 1057.36 173.799 1056.51 173.799C1055.73 173.799 1055.02 172.509 1055.02 170.962C1055.02 169.415 1055.66 168.125 1056.51 168.125C1057.36 168.125 1058 169.415 1058 170.962Z" fill="white"/>
<path d="M1067 170.962C1067 172.509 1066.37 173.799 1065.52 173.799C1064.74 173.799 1064.03 172.509 1064.03 170.962C1064.03 169.415 1064.67 168.125 1065.52 168.125C1066.37 168.125 1067 169.415 1067 170.962Z" fill="white"/>
<path d="M968.692 137.954C968.692 139.502 968.054 140.791 967.203 140.791C966.423 140.791 965.714 139.502 965.714 137.954C965.714 136.407 966.352 135.118 967.203 135.118C968.054 135.118 968.692 136.407 968.692 137.954Z" fill="white"/>
<path d="M977.698 137.954C977.698 139.502 977.06 140.791 976.209 140.791C975.429 140.791 974.72 139.502 974.72 137.954C974.72 136.407 975.358 135.118 976.209 135.118C976.989 135.118 977.698 136.407 977.698 137.954Z" fill="white"/>
<path d="M986.703 137.954C986.703 139.502 986.065 140.791 985.214 140.791C984.434 140.791 983.725 139.502 983.725 137.954C983.725 136.407 984.363 135.118 985.214 135.118C985.994 135.118 986.703 136.407 986.703 137.954Z" fill="white"/>
<path d="M995.637 137.954C995.637 139.502 994.999 140.791 994.148 140.791C993.368 140.791 992.659 139.502 992.659 137.954C992.659 136.407 993.297 135.118 994.148 135.118C994.999 135.118 995.637 136.407 995.637 137.954Z" fill="white"/>
<path d="M1004.64 137.954C1004.64 139.502 1004 140.791 1003.15 140.791C1002.37 140.791 1001.66 139.502 1001.66 137.954C1001.66 136.407 1002.3 135.118 1003.15 135.118C1004 135.118 1004.64 136.407 1004.64 137.954Z" fill="white"/>
<path d="M1013.65 137.954C1013.65 139.502 1013.01 140.791 1012.16 140.791C1011.38 140.791 1010.67 139.502 1010.67 137.954C1010.67 136.407 1011.31 135.118 1012.16 135.118C1013.01 135.118 1013.65 136.407 1013.65 137.954Z" fill="white"/>
<path d="M968.692 154.458C968.692 156.005 968.054 157.295 967.203 157.295C966.423 157.295 965.714 156.005 965.714 154.458C965.714 152.911 966.352 151.622 967.203 151.622C968.054 151.622 968.692 152.911 968.692 154.458Z" fill="white"/>
<path d="M977.698 154.458C977.698 156.005 977.06 157.295 976.209 157.295C975.429 157.295 974.72 156.005 974.72 154.458C974.72 152.911 975.358 151.622 976.209 151.622C976.989 151.622 977.698 152.911 977.698 154.458Z" fill="white"/>
<path d="M986.703 154.458C986.703 156.005 986.065 157.295 985.214 157.295C984.434 157.295 983.725 156.005 983.725 154.458C983.725 152.911 984.363 151.622 985.214 151.622C985.994 151.622 986.703 152.911 986.703 154.458Z" fill="white"/>
<path d="M995.637 154.458C995.637 156.005 994.999 157.295 994.148 157.295C993.368 157.295 992.659 156.005 992.659 154.458C992.659 152.911 993.297 151.622 994.148 151.622C994.999 151.622 995.637 152.911 995.637 154.458Z" fill="white"/>
<path d="M1004.64 154.458C1004.64 156.005 1004 157.295 1003.15 157.295C1002.37 157.295 1001.66 156.005 1001.66 154.458C1001.66 152.911 1002.3 151.622 1003.15 151.622C1004 151.622 1004.64 152.911 1004.64 154.458Z" fill="white"/>
<path d="M1013.65 154.458C1013.65 156.005 1013.01 157.295 1012.16 157.295C1011.38 157.295 1010.67 156.005 1010.67 154.458C1010.67 152.911 1011.31 151.622 1012.16 151.622C1013.01 151.622 1013.65 152.911 1013.65 154.458Z" fill="white"/>
<path d="M968.692 170.962C968.692 172.509 968.054 173.799 967.203 173.799C966.423 173.799 965.714 172.509 965.714 170.962C965.714 169.415 966.352 168.125 967.203 168.125C968.054 168.125 968.692 169.415 968.692 170.962Z" fill="white"/>
<path d="M977.698 170.962C977.698 172.509 977.06 173.799 976.209 173.799C975.429 173.799 974.72 172.509 974.72 170.962C974.72 169.415 975.358 168.125 976.209 168.125C976.989 168.125 977.698 169.415 977.698 170.962Z" fill="white"/>
<path d="M986.703 170.962C986.703 172.509 986.065 173.799 985.214 173.799C984.434 173.799 983.725 172.509 983.725 170.962C983.725 169.415 984.363 168.125 985.214 168.125C985.994 168.125 986.703 169.415 986.703 170.962Z" fill="white"/>
<path d="M995.637 170.962C995.637 172.509 994.999 173.799 994.148 173.799C993.368 173.799 992.659 172.509 992.659 170.962C992.659 169.415 993.297 168.125 994.148 168.125C994.999 168.125 995.637 169.415 995.637 170.962Z" fill="white"/>
<path d="M1004.64 170.962C1004.64 172.509 1004 173.799 1003.15 173.799C1002.37 173.799 1001.66 172.509 1001.66 170.962C1001.66 169.415 1002.3 168.125 1003.15 168.125C1004 168.125 1004.64 169.415 1004.64 170.962Z" fill="white"/>
<path d="M1013.65 170.962C1013.65 172.509 1013.01 173.799 1012.16 173.799C1011.38 173.799 1010.67 172.509 1010.67 170.962C1010.67 169.415 1011.31 168.125 1012.16 168.125C1013.01 168.125 1013.65 169.415 1013.65 170.962Z" fill="white"/>
<path d="M915.335 137.954C915.335 139.502 914.697 140.791 913.846 140.791C913.066 140.791 912.357 139.502 912.357 137.954C912.357 136.407 912.995 135.118 913.846 135.118C914.697 135.118 915.335 136.407 915.335 137.954Z" fill="white"/>
<path d="M924.34 137.954C924.34 139.502 923.702 140.791 922.851 140.791C922.071 140.791 921.362 139.502 921.362 137.954C921.362 136.407 922 135.118 922.851 135.118C923.631 135.118 924.34 136.407 924.34 137.954Z" fill="white"/>
<path d="M933.346 137.954C933.346 139.502 932.708 140.791 931.857 140.791C931.077 140.791 930.368 139.502 930.368 137.954C930.368 136.407 931.006 135.118 931.857 135.118C932.637 135.118 933.346 136.407 933.346 137.954Z" fill="white"/>
<path d="M942.28 137.954C942.28 139.502 941.642 140.791 940.791 140.791C940.011 140.791 939.302 139.502 939.302 137.954C939.302 136.407 939.94 135.118 940.791 135.118C941.642 135.118 942.28 136.407 942.28 137.954Z" fill="white"/>
<path d="M951.285 137.954C951.285 139.502 950.647 140.791 949.796 140.791C949.016 140.791 948.307 139.502 948.307 137.954C948.307 136.407 948.945 135.118 949.796 135.118C950.647 135.118 951.285 136.407 951.285 137.954Z" fill="white"/>
<path d="M960.291 137.954C960.291 139.502 959.653 140.791 958.802 140.791C958.022 140.791 957.313 139.502 957.313 137.954C957.313 136.407 957.951 135.118 958.802 135.118C959.653 135.118 960.291 136.407 960.291 137.954Z" fill="white"/>
<path d="M915.335 154.458C915.335 156.005 914.697 157.295 913.846 157.295C913.066 157.295 912.357 156.005 912.357 154.458C912.357 152.911 912.995 151.622 913.846 151.622C914.697 151.622 915.335 152.911 915.335 154.458Z" fill="white"/>
<path d="M924.34 154.458C924.34 156.005 923.702 157.295 922.851 157.295C922.071 157.295 921.362 156.005 921.362 154.458C921.362 152.911 922 151.622 922.851 151.622C923.631 151.622 924.34 152.911 924.34 154.458Z" fill="white"/>
<path d="M933.346 154.458C933.346 156.005 932.708 157.295 931.857 157.295C931.077 157.295 930.368 156.005 930.368 154.458C930.368 152.911 931.006 151.622 931.857 151.622C932.637 151.622 933.346 152.911 933.346 154.458Z" fill="white"/>
<path d="M942.28 154.458C942.28 156.005 941.642 157.295 940.791 157.295C940.011 157.295 939.302 156.005 939.302 154.458C939.302 152.911 939.94 151.622 940.791 151.622C941.642 151.622 942.28 152.911 942.28 154.458Z" fill="white"/>
<path d="M951.285 154.458C951.285 156.005 950.647 157.295 949.796 157.295C949.016 157.295 948.307 156.005 948.307 154.458C948.307 152.911 948.945 151.622 949.796 151.622C950.647 151.622 951.285 152.911 951.285 154.458Z" fill="white"/>
<path d="M960.291 154.458C960.291 156.005 959.653 157.295 958.802 157.295C958.022 157.295 957.313 156.005 957.313 154.458C957.313 152.911 957.951 151.622 958.802 151.622C959.653 151.622 960.291 152.911 960.291 154.458Z" fill="white"/>
<path d="M915.335 170.962C915.335 172.509 914.697 173.799 913.846 173.799C913.066 173.799 912.357 172.509 912.357 170.962C912.357 169.415 912.995 168.125 913.846 168.125C914.697 168.125 915.335 169.415 915.335 170.962Z" fill="white"/>
<path d="M924.34 170.962C924.34 172.509 923.702 173.799 922.851 173.799C922.071 173.799 921.362 172.509 921.362 170.962C921.362 169.415 922 168.125 922.851 168.125C923.631 168.125 924.34 169.415 924.34 170.962Z" fill="white"/>
<path d="M933.346 170.962C933.346 172.509 932.708 173.799 931.857 173.799C931.077 173.799 930.368 172.509 930.368 170.962C930.368 169.415 931.006 168.125 931.857 168.125C932.637 168.125 933.346 169.415 933.346 170.962Z" fill="white"/>
<path d="M942.28 170.962C942.28 172.509 941.642 173.799 940.791 173.799C940.011 173.799 939.302 172.509 939.302 170.962C939.302 169.415 939.94 168.125 940.791 168.125C941.642 168.125 942.28 169.415 942.28 170.962Z" fill="white"/>
<path d="M951.285 170.962C951.285 172.509 950.647 173.799 949.796 173.799C949.016 173.799 948.307 172.509 948.307 170.962C948.307 169.415 948.945 168.125 949.796 168.125C950.647 168.125 951.285 169.415 951.285 170.962Z" fill="white"/>
<path d="M960.291 170.962C960.291 172.509 959.653 173.799 958.802 173.799C958.022 173.799 957.313 172.509 957.313 170.962C957.313 169.415 957.951 168.125 958.802 168.125C959.653 168.125 960.291 169.415 960.291 170.962Z" fill="white"/>
<path d="M861.978 137.954C861.978 139.502 861.34 140.791 860.489 140.791C859.709 140.791 859 139.502 859 137.954C859 136.407 859.638 135.118 860.489 135.118C861.34 135.118 861.978 136.407 861.978 137.954Z" fill="white"/>
<path d="M870.983 137.954C870.983 139.502 870.345 140.791 869.494 140.791C868.714 140.791 868.005 139.502 868.005 137.954C868.005 136.407 868.643 135.118 869.494 135.118C870.274 135.118 870.983 136.407 870.983 137.954Z" fill="white"/>
<path d="M879.989 137.954C879.989 139.502 879.351 140.791 878.5 140.791C877.72 140.791 877.011 139.502 877.011 137.954C877.011 136.407 877.649 135.118 878.5 135.118C879.28 135.118 879.989 136.407 879.989 137.954Z" fill="white"/>
<path d="M888.923 137.954C888.923 139.502 888.285 140.791 887.434 140.791C886.654 140.791 885.945 139.502 885.945 137.954C885.945 136.407 886.583 135.118 887.434 135.118C888.285 135.118 888.923 136.407 888.923 137.954Z" fill="white"/>
<path d="M897.928 137.954C897.928 139.502 897.29 140.791 896.439 140.791C895.659 140.791 894.95 139.502 894.95 137.954C894.95 136.407 895.588 135.118 896.439 135.118C897.29 135.118 897.928 136.407 897.928 137.954Z" fill="white"/>
<path d="M906.934 137.954C906.934 139.502 906.296 140.791 905.445 140.791C904.665 140.791 903.956 139.502 903.956 137.954C903.956 136.407 904.594 135.118 905.445 135.118C906.296 135.118 906.934 136.407 906.934 137.954Z" fill="white"/>
<path d="M861.978 154.458C861.978 156.005 861.34 157.295 860.489 157.295C859.709 157.295 859 156.005 859 154.458C859 152.911 859.638 151.622 860.489 151.622C861.34 151.622 861.978 152.911 861.978 154.458Z" fill="white"/>
<path d="M870.983 154.458C870.983 156.005 870.345 157.295 869.494 157.295C868.714 157.295 868.005 156.005 868.005 154.458C868.005 152.911 868.643 151.622 869.494 151.622C870.274 151.622 870.983 152.911 870.983 154.458Z" fill="white"/>
<path d="M879.989 154.458C879.989 156.005 879.351 157.295 878.5 157.295C877.72 157.295 877.011 156.005 877.011 154.458C877.011 152.911 877.649 151.622 878.5 151.622C879.28 151.622 879.989 152.911 879.989 154.458Z" fill="white"/>
<path d="M888.923 154.458C888.923 156.005 888.285 157.295 887.434 157.295C886.654 157.295 885.945 156.005 885.945 154.458C885.945 152.911 886.583 151.622 887.434 151.622C888.285 151.622 888.923 152.911 888.923 154.458Z" fill="white"/>
<path d="M897.928 154.458C897.928 156.005 897.29 157.295 896.439 157.295C895.659 157.295 894.95 156.005 894.95 154.458C894.95 152.911 895.588 151.622 896.439 151.622C897.29 151.622 897.928 152.911 897.928 154.458Z" fill="white"/>
<path d="M906.934 154.458C906.934 156.005 906.296 157.295 905.445 157.295C904.665 157.295 903.956 156.005 903.956 154.458C903.956 152.911 904.594 151.622 905.445 151.622C906.296 151.622 906.934 152.911 906.934 154.458Z" fill="white"/>
<path d="M861.978 170.962C861.978 172.509 861.34 173.799 860.489 173.799C859.709 173.799 859 172.509 859 170.962C859 169.415 859.638 168.125 860.489 168.125C861.34 168.125 861.978 169.415 861.978 170.962Z" fill="white"/>
<path d="M870.983 170.962C870.983 172.509 870.345 173.799 869.494 173.799C868.714 173.799 868.005 172.509 868.005 170.962C868.005 169.415 868.643 168.125 869.494 168.125C870.274 168.125 870.983 169.415 870.983 170.962Z" fill="white"/>
<path d="M879.989 170.962C879.989 172.509 879.351 173.799 878.5 173.799C877.72 173.799 877.011 172.509 877.011 170.962C877.011 169.415 877.649 168.125 878.5 168.125C879.28 168.125 879.989 169.415 879.989 170.962Z" fill="white"/>
<path d="M888.923 170.962C888.923 172.509 888.285 173.799 887.434 173.799C886.654 173.799 885.945 172.509 885.945 170.962C885.945 169.415 886.583 168.125 887.434 168.125C888.285 168.125 888.923 169.415 888.923 170.962Z" fill="white"/>
<path d="M897.928 170.962C897.928 172.509 897.29 173.799 896.439 173.799C895.659 173.799 894.95 172.509 894.95 170.962C894.95 169.415 895.588 168.125 896.439 168.125C897.29 168.125 897.928 169.415 897.928 170.962Z" fill="white"/>
<path d="M906.934 170.962C906.934 172.509 906.296 173.799 905.445 173.799C904.665 173.799 903.956 172.509 903.956 170.962C903.956 169.415 904.594 168.125 905.445 168.125C906.296 168.125 906.934 169.415 906.934 170.962Z" fill="white"/>
</g>
<mask id="mask0_144_28403" style="mask-type:alpha" maskUnits="userSpaceOnUse" x="866" y="0" width="318" height="180">
<path d="M866 0H1104C1148.18 0 1184 35.8172 1184 80V100C1184 144.183 1148.18 180 1104 180H866V0Z" fill="#D9D9D9"/>
</mask>
<g mask="url(#mask0_144_28403)">
<path fill-rule="evenodd" clip-rule="evenodd" d="M978.576 90.3166C978.576 90.2107 978.572 90.1058 978.572 90C978.572 32.5623 1025 -14 1082.28 -14C1124.74 -14 1161.24 11.6014 1177.28 48.2495C1181.35 47.5471 1185.53 47.1767 1189.8 47.1767C1230.23 47.1767 1263 80.0444 1263 120.588C1263 161.132 1230.23 194 1189.8 194H972.853C944.215 194 921 170.718 921 141.999C921 113.281 944.215 90 972.853 90C974.787 90 976.696 90.1097 978.576 90.3166Z" fill="url(#paint0_linear_144_28403)"/>
</g>
</g>
<defs>
<filter id="filter0_d_144_28403" x="0" y="0" width="1188" height="190" filterUnits="userSpaceOnUse" color-interpolation-filters="sRGB">
<feFlood flood-opacity="0" result="BackgroundImageFix"/>
<feColorMatrix in="SourceAlpha" type="matrix" values="0 0 0 0 0 0 0 0 0 0 0 0 0 0 0 0 0 0 127 0" result="hardAlpha"/>
<feOffset dy="4"/>
<feGaussianBlur stdDeviation="2"/>
<feComposite in2="hardAlpha" operator="out"/>
<feColorMatrix type="matrix" values="0 0 0 0 0 0 0 0 0 0 0 0 0 0 0 0 0 0 0.15 0"/>
<feBlend mode="normal" in2="BackgroundImageFix" result="effect1_dropShadow_144_28403"/>
<feBlend mode="normal" in="SourceGraphic" in2="effect1_dropShadow_144_28403" result="shape"/>
</filter>
<linearGradient id="paint0_linear_144_28403" x1="1109.31" y1="172.774" x2="1109.31" y2="-44.8018" gradientUnits="userSpaceOnUse">
<stop stop-color="#F2F4F9" stop-opacity="0"/>
<stop offset="1" stop-color="#E0E5F1"/>
</linearGradient>
</defs>
</svg>
