<svg width="1559" height="1161" viewBox="0 0 1559 1161" fill="none" xmlns="http://www.w3.org/2000/svg">
<path d="M1501.47 1001L1460.48 1041.99H1161" stroke="#E4EBF7" stroke-width="2"/>
<path d="M1466 1043.07C1466 1039.2 1462.87 1036.06 1458.99 1036.06C1455.12 1036.06 1451.98 1039.2 1451.98 1043.07C1451.98 1046.94 1455.12 1050.08 1458.99 1050.08C1462.87 1050.08 1466 1046.94 1466 1043.07Z" fill="#A47FD3"/>
<path d="M274.55 1017.15H229.852C224.915 1017.15 220.912 1021.16 220.912 1026.09C220.912 1031.03 224.915 1035.03 229.852 1035.03H274.55C279.488 1035.03 283.49 1031.03 283.49 1026.09C283.49 1021.16 279.488 1017.15 274.55 1017.15Z" fill="#DFDFDF"/>
<path d="M1 873L153.864 1025.86H754.963V1160.89" stroke="#DFDFDF" stroke-width="2"/>
<path d="M764 1097.61C764 1092.67 759.997 1088.67 755.06 1088.67C750.123 1088.67 746.12 1092.67 746.12 1097.61C746.12 1102.55 750.123 1106.55 755.06 1106.55C759.997 1106.55 764 1102.55 764 1097.61Z" fill="#EAD9FF"/>
<path d="M764 1026.09C764 1021.16 759.997 1017.15 755.06 1017.15C750.123 1017.15 746.12 1021.16 746.12 1026.09C746.12 1031.03 750.123 1035.03 755.06 1035.03C759.997 1035.03 764 1031.03 764 1026.09Z" fill="#DFDFDF"/>
<path d="M162.804 1026.09C162.804 1021.16 158.802 1017.15 153.864 1017.15C148.927 1017.15 144.925 1021.16 144.925 1026.09C144.925 1031.03 148.927 1035.03 153.864 1035.03C158.802 1035.03 162.804 1031.03 162.804 1026.09Z" fill="#A47FD3"/>
<path d="M312.544 1026.09C312.544 1021.16 308.542 1017.15 303.604 1017.15C298.667 1017.15 294.665 1021.16 294.665 1026.09C294.665 1031.03 298.667 1035.03 303.604 1035.03C308.542 1035.03 312.544 1031.03 312.544 1026.09Z" fill="#EAD9FF"/>
<path d="M460.049 1017.15H341.598C336.661 1017.15 332.658 1021.16 332.658 1026.09C332.658 1031.03 336.661 1035.03 341.598 1035.03H460.049C464.987 1035.03 468.989 1031.03 468.989 1026.09C468.989 1021.16 464.987 1017.15 460.049 1017.15Z" fill="#A47FD3"/>
<path d="M1524.85 65.2551V265.675L1435.14 355.379V840.939H1321" stroke="#EAD9FF" stroke-width="2"/>
<path d="M1446.47 838.852C1446.47 832.692 1441.48 827.699 1435.32 827.699C1429.16 827.699 1424.16 832.692 1424.16 838.852C1424.16 845.011 1429.16 850.004 1435.32 850.004C1441.48 850.004 1446.47 845.011 1446.47 838.852Z" fill="#EAD9FF"/>
<path d="M1435.32 356.494V0" stroke="#EAD9FF" stroke-width="2"/>
<path d="M1446.47 356.494C1446.47 350.334 1441.48 345.341 1435.32 345.341C1429.16 345.341 1424.16 350.334 1424.16 356.494C1424.16 362.653 1429.16 367.646 1435.32 367.646C1441.48 367.646 1446.47 362.653 1446.47 356.494Z" fill="#EAD9FF"/>
<path d="M1446.47 498.692C1446.47 492.532 1441.48 487.539 1435.32 487.539C1429.16 487.539 1424.16 492.532 1424.16 498.692C1424.16 504.851 1429.16 509.844 1435.32 509.844C1441.48 509.844 1446.47 504.851 1446.47 498.692Z" fill="#A47FD3"/>
<path d="M1446.47 669.477C1446.47 663.317 1441.48 658.324 1435.32 658.324C1429.16 658.324 1424.16 663.317 1424.16 669.477C1424.16 675.636 1429.16 680.629 1435.32 680.629C1441.48 680.629 1446.47 675.636 1446.47 669.477Z" fill="#A47FD3"/>
<path d="M1446.47 264.483C1446.47 258.324 1441.48 253.331 1435.32 253.331C1429.16 253.331 1424.16 258.324 1424.16 264.483C1424.16 270.643 1429.16 275.636 1435.32 275.636C1441.48 275.636 1446.47 270.643 1446.47 264.483Z" fill="#A47FD3"/>
<path d="M1443.68 133.438C1443.68 128.818 1439.94 125.073 1435.32 125.073C1430.7 125.073 1426.95 128.818 1426.95 133.438V231.025C1426.95 235.645 1430.7 239.389 1435.32 239.389C1439.94 239.389 1443.68 235.645 1443.68 231.025V133.438Z" fill="#A47FD3"/>
<path d="M1443.68 575.509C1443.68 570.889 1439.94 567.144 1435.32 567.144C1430.7 567.144 1426.95 570.889 1426.95 575.509V599.969C1426.95 604.589 1430.7 608.334 1435.32 608.334C1439.94 608.334 1443.68 604.589 1443.68 599.969V575.509Z" fill="#A47FD3"/>
<path d="M1446.47 500.086H1558" stroke="#DFDFDF" stroke-width="2" stroke-linecap="square"/>
</svg>
