<svg width="1923" height="1161" viewBox="0 0 1923 1161" fill="none" xmlns="http://www.w3.org/2000/svg">
<path d="M1852.26 1001L1801.69 1041.99H1432.19" stroke="#E4EBF7" stroke-width="2"/>
<path d="M1808.5 1043.07C1808.5 1039.2 1804.63 1036.06 1799.85 1036.06C1795.07 1036.06 1791.2 1039.2 1791.2 1043.07C1791.2 1046.94 1795.07 1050.08 1799.85 1050.08C1804.63 1050.08 1808.5 1046.94 1808.5 1043.07Z" fill="#A47FD3"/>
<path d="M338.503 1017.15H283.354C277.263 1017.15 272.324 1021.16 272.324 1026.09C272.324 1031.03 277.263 1035.03 283.354 1035.03H338.503C344.594 1035.03 349.532 1031.03 349.532 1026.09C349.532 1021.16 344.594 1017.15 338.503 1017.15Z" fill="#DFDFDF"/>
<path d="M1 873L189.602 1025.86H931.229V1160.89" stroke="#DFDFDF" stroke-width="2"/>
<path d="M942.378 1097.61C942.378 1092.67 937.44 1088.67 931.349 1088.67C925.257 1088.67 920.319 1092.67 920.319 1097.61C920.319 1102.55 925.257 1106.55 931.349 1106.55C937.44 1106.55 942.378 1102.55 942.378 1097.61Z" fill="#EAD9FF"/>
<path d="M942.378 1026.09C942.378 1021.16 937.44 1017.15 931.349 1017.15C925.257 1017.15 920.319 1021.16 920.319 1026.09C920.319 1031.03 925.257 1035.03 931.349 1035.03C937.44 1035.03 942.378 1031.03 942.378 1026.09Z" fill="#DFDFDF"/>
<path d="M200.631 1026.09C200.631 1021.16 195.693 1017.15 189.602 1017.15C183.51 1017.15 178.572 1021.16 178.572 1026.09C178.572 1031.03 183.51 1035.03 189.602 1035.03C195.693 1035.03 200.631 1031.03 200.631 1026.09Z" fill="#A47FD3"/>
<path d="M385.378 1026.09C385.378 1021.16 380.44 1017.15 374.349 1017.15C368.257 1017.15 363.319 1021.16 363.319 1026.09C363.319 1031.03 368.257 1035.03 374.349 1035.03C380.44 1035.03 385.378 1031.03 385.378 1026.09Z" fill="#EAD9FF"/>
<path d="M567.369 1017.15H421.225C415.134 1017.15 410.196 1021.16 410.196 1026.09C410.196 1031.03 415.134 1035.03 421.225 1035.03H567.369C573.46 1035.03 578.398 1031.03 578.398 1026.09C578.398 1021.16 573.46 1017.15 567.369 1017.15Z" fill="#A47FD3"/>
<path d="M1881.1 65.2551V265.675L1770.42 355.379V840.939H1629.6" stroke="#EAD9FF" stroke-width="2"/>
<path d="M1784.4 838.852C1784.4 832.692 1778.24 827.699 1770.64 827.699C1763.04 827.699 1756.88 832.692 1756.88 838.852C1756.88 845.011 1763.04 850.004 1770.64 850.004C1778.24 850.004 1784.4 845.011 1784.4 838.852Z" fill="#EAD9FF"/>
<path d="M1770.64 356.494V0" stroke="#EAD9FF" stroke-width="2"/>
<path d="M1784.4 356.494C1784.4 350.334 1778.24 345.341 1770.64 345.341C1763.04 345.341 1756.88 350.334 1756.88 356.494C1756.88 362.653 1763.04 367.646 1770.64 367.646C1778.24 367.646 1784.4 362.653 1784.4 356.494Z" fill="#EAD9FF"/>
<path d="M1784.4 498.692C1784.4 492.532 1778.24 487.539 1770.64 487.539C1763.04 487.539 1756.88 492.532 1756.88 498.692C1756.88 504.851 1763.04 509.844 1770.64 509.844C1778.24 509.844 1784.4 504.851 1784.4 498.692Z" fill="#A47FD3"/>
<path d="M1784.4 669.477C1784.4 663.317 1778.24 658.324 1770.64 658.324C1763.04 658.324 1756.88 663.317 1756.88 669.477C1756.88 675.636 1763.04 680.629 1770.64 680.629C1778.24 680.629 1784.4 675.636 1784.4 669.477Z" fill="#A47FD3"/>
<path d="M1784.4 264.483C1784.4 258.324 1778.24 253.331 1770.64 253.331C1763.04 253.331 1756.88 258.324 1756.88 264.483C1756.88 270.643 1763.04 275.636 1770.64 275.636C1778.24 275.636 1784.4 270.643 1784.4 264.483Z" fill="#A47FD3"/>
<path d="M1780.96 133.438C1780.96 128.818 1776.34 125.073 1770.64 125.073C1764.94 125.073 1760.32 128.818 1760.32 133.438V231.025C1760.32 235.645 1764.94 239.389 1770.64 239.389C1776.34 239.389 1780.96 235.645 1780.96 231.025V133.438Z" fill="#A47FD3"/>
<path d="M1780.96 575.509C1780.96 570.889 1776.34 567.144 1770.64 567.144C1764.94 567.144 1760.32 570.889 1760.32 575.509V599.969C1760.32 604.589 1764.94 608.334 1770.64 608.334C1776.34 608.334 1780.96 604.589 1780.96 599.969V575.509Z" fill="#A47FD3"/>
<path d="M1784.4 500.086H1922" stroke="#DFDFDF" stroke-width="2" stroke-linecap="square"/>
</svg>
