<svg width="45" height="45" viewBox="0 0 45 45" fill="none" xmlns="http://www.w3.org/2000/svg">
<g clip-path="url(#clip0_185_2994)">
<path d="M22.5 45C34.9264 45 45 34.9264 45 22.5C45 10.0736 34.9264 0 22.5 0C10.0736 0 0 10.0736 0 22.5C0 34.9264 10.0736 45 22.5 45Z" fill="#5CB9B8"/>
<path d="M28.9359 28.4643C28.9394 28.4766 28.9434 28.4888 28.9479 28.5008C28.9741 28.5711 28.9822 28.6467 28.9714 28.721C28.9606 28.7956 28.9312 28.866 28.8862 28.9257C28.841 28.9857 28.7815 29.0334 28.7131 29.0643C28.645 29.0951 28.5699 29.1083 28.4948 29.1025C28.482 29.1015 28.4692 29.101 28.4564 29.101H16.9614C16.95 29.101 16.9385 29.1014 16.9271 29.1022C16.8488 29.1076 16.7708 29.0936 16.6997 29.0617C16.6286 29.0297 16.5662 28.9805 16.5184 28.9186C16.4707 28.8568 16.4389 28.784 16.426 28.7068C16.4131 28.6297 16.4193 28.5508 16.4443 28.4767C16.448 28.4658 16.4512 28.4548 16.4542 28.4437L22.3989 5.74065L28.9359 28.4643ZM22.6197 5.00655C22.6197 5.00656 22.6195 5.00693 22.6189 5.00761L22.6197 5.00655ZM22.1616 5.01278C22.161 5.01209 22.1608 5.01172 22.1608 5.01171L22.1616 5.01278Z" fill="#389B99" stroke="#535353" stroke-linejoin="round"/>
<path d="M8.77026 28.9741H36.6233C37.0183 28.9741 37.3971 29.131 37.6766 29.4103C37.956 29.6896 38.1131 30.0684 38.1133 30.4634C38.1131 30.739 37.8813 31.2339 37.1896 31.8663C36.5242 32.4747 35.5166 33.1323 34.1833 33.7387C31.5203 34.9499 27.6128 35.9321 22.6973 35.9321C17.7815 35.9321 13.8737 34.9523 11.2106 33.7424C9.87718 33.1366 8.86954 32.4794 8.20419 31.8706C7.51273 31.238 7.28027 30.7417 7.28027 30.4631C7.28054 30.0682 7.43762 29.6895 7.71699 29.4103C7.99641 29.131 8.37524 28.9741 8.77026 28.9741Z" fill="#389B99" stroke="#535353" stroke-linejoin="round"/>
<path d="M29.4164 28.3262L28.9564 26.7261H16.3865L15.9705 28.3162C15.9192 28.4682 15.9063 28.6304 15.9329 28.7886C15.9594 28.9468 16.0245 29.0961 16.1226 29.2231C16.2206 29.3501 16.3484 29.4511 16.4948 29.5168C16.6411 29.5826 16.8014 29.6111 16.9614 29.6001H28.4564C28.6149 29.6122 28.7738 29.5842 28.9186 29.5188C29.0634 29.4534 29.1894 29.3527 29.285 29.2258C29.3807 29.0989 29.4427 28.9499 29.4657 28.7927C29.4887 28.6355 29.4717 28.4751 29.4164 28.3262Z" fill="#FFF24E"/>
<path fill-rule="evenodd" clip-rule="evenodd" d="M24.6864 24.8262H20.7074C20.4439 24.8275 20.1916 24.9326 20.0052 25.1189C19.8189 25.3052 19.7137 25.5576 19.7124 25.821V29.8C19.7124 30.0644 19.8171 30.318 20.0035 30.5054C20.19 30.6928 20.443 30.7987 20.7074 30.8H24.6864C24.9508 30.7987 25.2038 30.6928 25.3903 30.5054C25.5767 30.318 25.6814 30.0644 25.6814 29.8V25.821C25.6801 25.5576 25.5749 25.3052 25.3885 25.1189C25.2022 24.9326 24.9499 24.8275 24.6864 24.8262ZM23.6924 28.8062H21.7024V26.8162H23.6924V28.8062Z" fill="white"/>
<path d="M20.0444 17.4231L22.0704 17.467L22.7394 15.553L23.3224 17.4941L25.3494 17.5371L23.6844 18.6921L24.2684 20.634L22.6554 19.406L20.9894 20.563L21.6594 18.6492L20.0444 17.4231Z" fill="#FFF24E"/>
</g>
<defs>
<clipPath id="clip0_185_2994">
<rect width="45" height="45" fill="white"/>
</clipPath>
</defs>
</svg>
