<svg width="558" height="116" viewBox="0 0 558 116" fill="none" xmlns="http://www.w3.org/2000/svg">
<g clip-path="url(#clip0_144_28206)">
<path d="M123.912 21.6911V116H61.5615L0 21.6911H123.912Z" fill="#A47FD3"/>
<path d="M558 21.6911L496.438 116H434.877V21.6911H558Z" fill="#A47FD3"/>
<path d="M123.912 20.2764V116L74.9788 94.3089V20.2764H123.912Z" fill="#FFF24E"/>
<path d="M483.81 20.2764V94.3089L434.877 116V20.2764H483.81Z" fill="#FFF24E"/>
<path d="M483.81 94.3089H74.9787L43.093 47.1545L74.9787 0H483.81L515.696 47.1545L483.81 94.3089Z" fill="#8252BE"/>
<path d="M474.497 8.80219H455.555V10.374H474.497V8.80219ZM436.613 8.80219H417.671V10.374H436.613V8.80219ZM398.729 8.80219H379.787V10.374H398.729V8.80219ZM360.845 8.80219H341.903V10.374H360.845V8.80219ZM322.961 8.80219H304.019V10.374H322.961V8.80219ZM285.077 8.80219H266.135V10.374H285.077V8.80219ZM247.193 8.80219H228.251V10.374H247.193V8.80219ZM209.309 8.80219H190.367V10.374H209.309V8.80219ZM171.425 8.80219H152.483V10.374H171.425V8.80219ZM133.541 8.80219H114.599V10.374H133.541V8.80219ZM95.6572 8.80219H83.0292C83.0292 8.80219 83.0292 8.95937 82.8713 8.95937C82.7135 9.11655 82.7135 9.27373 82.3978 9.58809C82.2399 9.74527 82.2399 9.90246 82.0821 9.90246C82.0821 10.0596 82.0821 10.2168 82.0821 10.2168C82.0821 10.2168 82.0821 10.2168 82.0821 10.374C82.0821 10.374 82.0821 10.374 82.0821 10.5312C82.0821 10.5312 82.0821 10.5312 82.0821 10.6884L81.9242 11.0027L81.7664 11.1599L81.6085 11.3171L80.5036 12.5745L80.3457 12.7317L79.5565 13.9892L80.8193 14.9323L83.9763 10.374H95.6572V8.80219ZM68.9805 29.7073L58.4045 45.4255L59.6673 46.3686L70.2433 30.6504L68.9805 29.7073ZM67.7177 60.0434L66.4549 60.9865C66.4549 60.9865 67.402 62.4011 68.8226 64.6016V64.7588L76.873 76.7046L78.1358 75.7615L67.7177 60.0434ZM110.022 83.935H91.0795V85.5068H110.022V83.935ZM147.906 83.935H128.964V85.5068H147.906V83.935ZM185.79 83.935H166.848V85.5068H185.79V83.935ZM223.674 83.935H204.732V85.5068H223.674V83.935ZM261.558 83.935H242.616V85.5068H261.558V83.935ZM299.442 83.935H280.5V85.5068H299.442V83.935ZM337.326 83.935H318.384V85.5068H337.326V83.935ZM375.21 83.935H356.268V85.5068H375.21V83.935ZM413.094 83.935H394.152V85.5068H413.094V83.935ZM450.978 83.935H432.036V85.5068H450.978V83.935ZM481.285 72.7751L473.708 84.0922H470.078V85.664H474.497C474.497 85.664 474.497 85.664 474.655 85.5068C474.655 85.5068 474.655 85.3496 474.813 85.3496C474.813 85.3496 474.813 85.3496 474.813 85.1924L482.232 74.0325L481.285 72.7751ZM497.07 42.2819L495.807 43.2249L498.491 47.1545L491.861 57.0569L493.124 58L500.385 47.1545L497.07 42.2819ZM476.076 11.0027L474.813 11.9458L485.389 27.664L486.652 26.7209L476.076 11.0027Z" fill="white"/>
</g>
<defs>
<clipPath id="clip0_144_28206">
<rect width="558" height="116" fill="white"/>
</clipPath>
</defs>
</svg>
