<svg width="344" height="29" viewBox="0 0 344 29" fill="none" xmlns="http://www.w3.org/2000/svg">
<g opacity="0.5">
<path d="M284.269 2.11966C284.269 3.27583 283.434 4.23932 282.32 4.23932C281.299 4.23932 280.37 3.27583 280.37 2.11966C280.37 0.963478 281.206 0 282.32 0C283.434 0 284.269 0.963478 284.269 2.11966Z" fill="white"/>
<path d="M296.06 2.11966C296.06 3.27583 295.224 4.23932 294.11 4.23932C293.089 4.23932 292.161 3.27583 292.161 2.11966C292.161 0.963478 292.996 0 294.11 0C295.131 0 296.06 0.963478 296.06 2.11966Z" fill="white"/>
<path d="M307.85 2.11966C307.85 3.27583 307.015 4.23932 305.901 4.23932C304.88 4.23932 303.951 3.27583 303.951 2.11966C303.951 0.963478 304.787 0 305.901 0C306.922 0 307.85 0.963478 307.85 2.11966Z" fill="white"/>
<path d="M319.548 2.11966C319.548 3.27583 318.712 4.23932 317.598 4.23932C316.577 4.23932 315.648 3.27583 315.648 2.11966C315.648 0.963478 316.484 0 317.598 0C318.712 0 319.548 0.963478 319.548 2.11966Z" fill="white"/>
<path d="M331.338 2.11966C331.338 3.27583 330.503 4.23932 329.389 4.23932C328.367 4.23932 327.439 3.27583 327.439 2.11966C327.439 0.963478 328.275 0 329.389 0C330.503 0 331.338 0.963478 331.338 2.11966Z" fill="white"/>
<path d="M343.129 2.11966C343.129 3.27583 342.293 4.23932 341.179 4.23932C340.158 4.23932 339.229 3.27583 339.229 2.11966C339.229 0.963478 340.065 0 341.179 0C342.293 0 343.129 0.963478 343.129 2.11966Z" fill="white"/>
<path d="M284.269 14.4522C284.269 15.6084 283.434 16.5718 282.32 16.5718C281.299 16.5718 280.37 15.6084 280.37 14.4522C280.37 13.296 281.206 12.3325 282.32 12.3325C283.434 12.3325 284.269 13.296 284.269 14.4522Z" fill="white"/>
<path d="M296.059 14.4522C296.059 15.6084 295.224 16.5718 294.11 16.5718C293.089 16.5718 292.16 15.6084 292.16 14.4522C292.16 13.296 292.996 12.3325 294.11 12.3325C295.131 12.3325 296.059 13.296 296.059 14.4522Z" fill="white"/>
<path d="M307.85 14.4522C307.85 15.6084 307.014 16.5718 305.9 16.5718C304.879 16.5718 303.951 15.6084 303.951 14.4522C303.951 13.296 304.786 12.3325 305.9 12.3325C306.922 12.3325 307.85 13.296 307.85 14.4522Z" fill="white"/>
<path d="M319.548 14.4522C319.548 15.6084 318.712 16.5718 317.598 16.5718C316.577 16.5718 315.648 15.6084 315.648 14.4522C315.648 13.296 316.484 12.3325 317.598 12.3325C318.712 12.3325 319.548 13.296 319.548 14.4522Z" fill="white"/>
<path d="M331.338 14.4522C331.338 15.6084 330.503 16.5718 329.389 16.5718C328.367 16.5718 327.439 15.6084 327.439 14.4522C327.439 13.296 328.275 12.3325 329.389 12.3325C330.503 12.3325 331.338 13.296 331.338 14.4522Z" fill="white"/>
<path d="M343.129 14.4522C343.129 15.6084 342.293 16.5718 341.179 16.5718C340.158 16.5718 339.229 15.6084 339.229 14.4522C339.229 13.296 340.065 12.3325 341.179 12.3325C342.293 12.3325 343.129 13.296 343.129 14.4522Z" fill="white"/>
<path d="M284.269 26.7847C284.269 27.9409 283.434 28.9044 282.32 28.9044C281.299 28.9044 280.37 27.9409 280.37 26.7847C280.37 25.6285 281.206 24.665 282.32 24.665C283.434 24.665 284.269 25.6285 284.269 26.7847Z" fill="white"/>
<path d="M296.059 26.7847C296.059 27.9409 295.224 28.9044 294.11 28.9044C293.089 28.9044 292.16 27.9409 292.16 26.7847C292.16 25.6285 292.996 24.665 294.11 24.665C295.131 24.665 296.059 25.6285 296.059 26.7847Z" fill="white"/>
<path d="M307.85 26.7847C307.85 27.9409 307.014 28.9044 305.9 28.9044C304.879 28.9044 303.951 27.9409 303.951 26.7847C303.951 25.6285 304.786 24.665 305.9 24.665C306.922 24.665 307.85 25.6285 307.85 26.7847Z" fill="white"/>
<path d="M319.548 26.7847C319.548 27.9409 318.712 28.9044 317.598 28.9044C316.577 28.9044 315.648 27.9409 315.648 26.7847C315.648 25.6285 316.484 24.665 317.598 24.665C318.712 24.665 319.548 25.6285 319.548 26.7847Z" fill="white"/>
<path d="M331.338 26.7847C331.338 27.9409 330.503 28.9044 329.389 28.9044C328.367 28.9044 327.439 27.9409 327.439 26.7847C327.439 25.6285 328.275 24.665 329.389 24.665C330.503 24.665 331.338 25.6285 331.338 26.7847Z" fill="white"/>
<path d="M343.129 26.7847C343.129 27.9409 342.293 28.9044 341.179 28.9044C340.158 28.9044 339.229 27.9409 339.229 26.7847C339.229 25.6285 340.065 24.665 341.179 24.665C342.293 24.665 343.129 25.6285 343.129 26.7847Z" fill="white"/>
<path d="M214.409 2.11966C214.409 3.27583 213.574 4.23932 212.46 4.23932C211.439 4.23932 210.51 3.27583 210.51 2.11966C210.51 0.963478 211.346 0 212.46 0C213.574 0 214.409 0.963478 214.409 2.11966Z" fill="white"/>
<path d="M226.2 2.11966C226.2 3.27583 225.364 4.23932 224.25 4.23932C223.229 4.23932 222.301 3.27583 222.301 2.11966C222.301 0.963478 223.136 0 224.25 0C225.272 0 226.2 0.963478 226.2 2.11966Z" fill="white"/>
<path d="M237.991 2.11966C237.991 3.27583 237.155 4.23932 236.041 4.23932C235.02 4.23932 234.091 3.27583 234.091 2.11966C234.091 0.963478 234.927 0 236.041 0C237.062 0 237.991 0.963478 237.991 2.11966Z" fill="white"/>
<path d="M249.688 2.11966C249.688 3.27583 248.852 4.23932 247.738 4.23932C246.717 4.23932 245.789 3.27583 245.789 2.11966C245.789 0.963478 246.624 0 247.738 0C248.852 0 249.688 0.963478 249.688 2.11966Z" fill="white"/>
<path d="M261.478 2.11966C261.478 3.27583 260.643 4.23932 259.529 4.23932C258.507 4.23932 257.579 3.27583 257.579 2.11966C257.579 0.963478 258.415 0 259.529 0C260.643 0 261.478 0.963478 261.478 2.11966Z" fill="white"/>
<path d="M273.269 2.11966C273.269 3.27583 272.433 4.23932 271.319 4.23932C270.298 4.23932 269.37 3.27583 269.37 2.11966C269.37 0.963478 270.205 0 271.319 0C272.433 0 273.269 0.963478 273.269 2.11966Z" fill="white"/>
<path d="M214.409 14.4522C214.409 15.6084 213.574 16.5718 212.46 16.5718C211.439 16.5718 210.51 15.6084 210.51 14.4522C210.51 13.296 211.346 12.3325 212.46 12.3325C213.574 12.3325 214.409 13.296 214.409 14.4522Z" fill="white"/>
<path d="M226.2 14.4522C226.2 15.6084 225.364 16.5718 224.25 16.5718C223.229 16.5718 222.301 15.6084 222.301 14.4522C222.301 13.296 223.136 12.3325 224.25 12.3325C225.272 12.3325 226.2 13.296 226.2 14.4522Z" fill="white"/>
<path d="M237.991 14.4522C237.991 15.6084 237.155 16.5718 236.041 16.5718C235.02 16.5718 234.091 15.6084 234.091 14.4522C234.091 13.296 234.927 12.3325 236.041 12.3325C237.062 12.3325 237.991 13.296 237.991 14.4522Z" fill="white"/>
<path d="M249.688 14.4522C249.688 15.6084 248.852 16.5718 247.738 16.5718C246.717 16.5718 245.789 15.6084 245.789 14.4522C245.789 13.296 246.624 12.3325 247.738 12.3325C248.852 12.3325 249.688 13.296 249.688 14.4522Z" fill="white"/>
<path d="M261.478 14.4522C261.478 15.6084 260.643 16.5718 259.529 16.5718C258.507 16.5718 257.579 15.6084 257.579 14.4522C257.579 13.296 258.415 12.3325 259.529 12.3325C260.643 12.3325 261.478 13.296 261.478 14.4522Z" fill="white"/>
<path d="M273.269 14.4522C273.269 15.6084 272.433 16.5718 271.319 16.5718C270.298 16.5718 269.37 15.6084 269.37 14.4522C269.37 13.296 270.205 12.3325 271.319 12.3325C272.433 12.3325 273.269 13.296 273.269 14.4522Z" fill="white"/>
<path d="M214.409 26.7847C214.409 27.9409 213.574 28.9044 212.46 28.9044C211.439 28.9044 210.51 27.9409 210.51 26.7847C210.51 25.6285 211.346 24.665 212.46 24.665C213.574 24.665 214.409 25.6285 214.409 26.7847Z" fill="white"/>
<path d="M226.2 26.7847C226.2 27.9409 225.364 28.9044 224.25 28.9044C223.229 28.9044 222.301 27.9409 222.301 26.7847C222.301 25.6285 223.136 24.665 224.25 24.665C225.272 24.665 226.2 25.6285 226.2 26.7847Z" fill="white"/>
<path d="M237.991 26.7847C237.991 27.9409 237.155 28.9044 236.041 28.9044C235.02 28.9044 234.091 27.9409 234.091 26.7847C234.091 25.6285 234.927 24.665 236.041 24.665C237.062 24.665 237.991 25.6285 237.991 26.7847Z" fill="white"/>
<path d="M249.688 26.7847C249.688 27.9409 248.852 28.9044 247.738 28.9044C246.717 28.9044 245.789 27.9409 245.789 26.7847C245.789 25.6285 246.624 24.665 247.738 24.665C248.852 24.665 249.688 25.6285 249.688 26.7847Z" fill="white"/>
<path d="M261.478 26.7847C261.478 27.9409 260.643 28.9044 259.529 28.9044C258.507 28.9044 257.579 27.9409 257.579 26.7847C257.579 25.6285 258.415 24.665 259.529 24.665C260.643 24.665 261.478 25.6285 261.478 26.7847Z" fill="white"/>
<path d="M273.269 26.7847C273.269 27.9409 272.433 28.9044 271.319 28.9044C270.298 28.9044 269.37 27.9409 269.37 26.7847C269.37 25.6285 270.205 24.665 271.319 24.665C272.433 24.665 273.269 25.6285 273.269 26.7847Z" fill="white"/>
<path d="M144.551 2.11966C144.551 3.27583 143.715 4.23932 142.601 4.23932C141.58 4.23932 140.651 3.27583 140.651 2.11966C140.651 0.963478 141.487 0 142.601 0C143.715 0 144.551 0.963478 144.551 2.11966Z" fill="white"/>
<path d="M156.341 2.11966C156.341 3.27583 155.506 4.23932 154.392 4.23932C153.37 4.23932 152.442 3.27583 152.442 2.11966C152.442 0.963478 153.277 0 154.392 0C155.413 0 156.341 0.963478 156.341 2.11966Z" fill="white"/>
<path d="M168.132 2.11966C168.132 3.27583 167.296 4.23932 166.182 4.23932C165.161 4.23932 164.232 3.27583 164.232 2.11966C164.232 0.963478 165.068 0 166.182 0C167.203 0 168.132 0.963478 168.132 2.11966Z" fill="white"/>
<path d="M179.829 2.11966C179.829 3.27583 178.993 4.23932 177.879 4.23932C176.858 4.23932 175.93 3.27583 175.93 2.11966C175.93 0.963478 176.765 0 177.879 0C178.993 0 179.829 0.963478 179.829 2.11966Z" fill="white"/>
<path d="M191.619 2.11966C191.619 3.27583 190.784 4.23932 189.67 4.23932C188.649 4.23932 187.72 3.27583 187.72 2.11966C187.72 0.963478 188.556 0 189.67 0C190.784 0 191.619 0.963478 191.619 2.11966Z" fill="white"/>
<path d="M203.41 2.11966C203.41 3.27583 202.574 4.23932 201.46 4.23932C200.439 4.23932 199.511 3.27583 199.511 2.11966C199.511 0.963478 200.346 0 201.46 0C202.574 0 203.41 0.963478 203.41 2.11966Z" fill="white"/>
<path d="M144.551 14.4522C144.551 15.6084 143.715 16.5718 142.601 16.5718C141.58 16.5718 140.651 15.6084 140.651 14.4522C140.651 13.296 141.487 12.3325 142.601 12.3325C143.715 12.3325 144.551 13.296 144.551 14.4522Z" fill="white"/>
<path d="M156.341 14.4522C156.341 15.6084 155.506 16.5718 154.392 16.5718C153.37 16.5718 152.442 15.6084 152.442 14.4522C152.442 13.296 153.277 12.3325 154.392 12.3325C155.413 12.3325 156.341 13.296 156.341 14.4522Z" fill="white"/>
<path d="M168.132 14.4522C168.132 15.6084 167.296 16.5718 166.182 16.5718C165.161 16.5718 164.232 15.6084 164.232 14.4522C164.232 13.296 165.068 12.3325 166.182 12.3325C167.203 12.3325 168.132 13.296 168.132 14.4522Z" fill="white"/>
<path d="M179.829 14.4522C179.829 15.6084 178.993 16.5718 177.879 16.5718C176.858 16.5718 175.93 15.6084 175.93 14.4522C175.93 13.296 176.765 12.3325 177.879 12.3325C178.993 12.3325 179.829 13.296 179.829 14.4522Z" fill="white"/>
<path d="M191.619 14.4522C191.619 15.6084 190.784 16.5718 189.67 16.5718C188.649 16.5718 187.72 15.6084 187.72 14.4522C187.72 13.296 188.556 12.3325 189.67 12.3325C190.784 12.3325 191.619 13.296 191.619 14.4522Z" fill="white"/>
<path d="M203.41 14.4522C203.41 15.6084 202.574 16.5718 201.46 16.5718C200.439 16.5718 199.511 15.6084 199.511 14.4522C199.511 13.296 200.346 12.3325 201.46 12.3325C202.574 12.3325 203.41 13.296 203.41 14.4522Z" fill="white"/>
<path d="M144.551 26.7847C144.551 27.9409 143.715 28.9044 142.601 28.9044C141.58 28.9044 140.651 27.9409 140.651 26.7847C140.651 25.6285 141.487 24.665 142.601 24.665C143.715 24.665 144.551 25.6285 144.551 26.7847Z" fill="white"/>
<path d="M156.341 26.7847C156.341 27.9409 155.506 28.9044 154.392 28.9044C153.37 28.9044 152.442 27.9409 152.442 26.7847C152.442 25.6285 153.277 24.665 154.392 24.665C155.413 24.665 156.341 25.6285 156.341 26.7847Z" fill="white"/>
<path d="M168.132 26.7847C168.132 27.9409 167.296 28.9044 166.182 28.9044C165.161 28.9044 164.232 27.9409 164.232 26.7847C164.232 25.6285 165.068 24.665 166.182 24.665C167.203 24.665 168.132 25.6285 168.132 26.7847Z" fill="white"/>
<path d="M179.829 26.7847C179.829 27.9409 178.993 28.9044 177.879 28.9044C176.858 28.9044 175.93 27.9409 175.93 26.7847C175.93 25.6285 176.765 24.665 177.879 24.665C178.993 24.665 179.829 25.6285 179.829 26.7847Z" fill="white"/>
<path d="M191.619 26.7847C191.619 27.9409 190.784 28.9044 189.67 28.9044C188.649 28.9044 187.72 27.9409 187.72 26.7847C187.72 25.6285 188.556 24.665 189.67 24.665C190.784 24.665 191.619 25.6285 191.619 26.7847Z" fill="white"/>
<path d="M203.41 26.7847C203.41 27.9409 202.574 28.9044 201.46 28.9044C200.439 28.9044 199.511 27.9409 199.511 26.7847C199.511 25.6285 200.346 24.665 201.46 24.665C202.574 24.665 203.41 25.6285 203.41 26.7847Z" fill="white"/>
<path d="M74.6912 2.11966C74.6912 3.27583 73.8557 4.23932 72.7416 4.23932C71.7204 4.23932 70.792 3.27583 70.792 2.11966C70.792 0.963478 71.6275 0 72.7416 0C73.8557 0 74.6912 0.963478 74.6912 2.11966Z" fill="white"/>
<path d="M86.4817 2.11966C86.4817 3.27583 85.6462 4.23932 84.5321 4.23932C83.5109 4.23932 82.5825 3.27583 82.5825 2.11966C82.5825 0.963478 83.4181 0 84.5321 0C85.5533 0 86.4817 0.963478 86.4817 2.11966Z" fill="white"/>
<path d="M98.2723 2.11966C98.2723 3.27583 97.4367 4.23932 96.3227 4.23932C95.3014 4.23932 94.373 3.27583 94.373 2.11966C94.373 0.963478 95.2086 0 96.3227 0C97.3439 0 98.2723 0.963478 98.2723 2.11966Z" fill="white"/>
<path d="M109.97 2.11966C109.97 3.27583 109.134 4.23932 108.02 4.23932C106.999 4.23932 106.07 3.27583 106.07 2.11966C106.07 0.963478 106.906 0 108.02 0C109.134 0 109.97 0.963478 109.97 2.11966Z" fill="white"/>
<path d="M121.76 2.11966C121.76 3.27583 120.925 4.23932 119.81 4.23932C118.789 4.23932 117.861 3.27583 117.861 2.11966C117.861 0.963478 118.696 0 119.81 0C120.925 0 121.76 0.963478 121.76 2.11966Z" fill="white"/>
<path d="M133.551 2.11966C133.551 3.27583 132.715 4.23932 131.601 4.23932C130.58 4.23932 129.651 3.27583 129.651 2.11966C129.651 0.963478 130.487 0 131.601 0C132.715 0 133.551 0.963478 133.551 2.11966Z" fill="white"/>
<path d="M74.6912 14.4522C74.6912 15.6084 73.8557 16.5718 72.7416 16.5718C71.7204 16.5718 70.792 15.6084 70.792 14.4522C70.792 13.296 71.6275 12.3325 72.7416 12.3325C73.8557 12.3325 74.6912 13.296 74.6912 14.4522Z" fill="white"/>
<path d="M86.4817 14.4522C86.4817 15.6084 85.6462 16.5718 84.5321 16.5718C83.5109 16.5718 82.5825 15.6084 82.5825 14.4522C82.5825 13.296 83.4181 12.3325 84.5321 12.3325C85.5533 12.3325 86.4817 13.296 86.4817 14.4522Z" fill="white"/>
<path d="M98.2723 14.4522C98.2723 15.6084 97.4367 16.5718 96.3227 16.5718C95.3014 16.5718 94.373 15.6084 94.373 14.4522C94.373 13.296 95.2086 12.3325 96.3227 12.3325C97.3439 12.3325 98.2723 13.296 98.2723 14.4522Z" fill="white"/>
<path d="M109.97 14.4522C109.97 15.6084 109.134 16.5718 108.02 16.5718C106.999 16.5718 106.07 15.6084 106.07 14.4522C106.07 13.296 106.906 12.3325 108.02 12.3325C109.134 12.3325 109.97 13.296 109.97 14.4522Z" fill="white"/>
<path d="M121.76 14.4522C121.76 15.6084 120.925 16.5718 119.81 16.5718C118.789 16.5718 117.861 15.6084 117.861 14.4522C117.861 13.296 118.696 12.3325 119.81 12.3325C120.925 12.3325 121.76 13.296 121.76 14.4522Z" fill="white"/>
<path d="M133.551 14.4522C133.551 15.6084 132.715 16.5718 131.601 16.5718C130.58 16.5718 129.651 15.6084 129.651 14.4522C129.651 13.296 130.487 12.3325 131.601 12.3325C132.715 12.3325 133.551 13.296 133.551 14.4522Z" fill="white"/>
<path d="M74.6912 26.7847C74.6912 27.9409 73.8557 28.9044 72.7416 28.9044C71.7204 28.9044 70.792 27.9409 70.792 26.7847C70.792 25.6285 71.6275 24.665 72.7416 24.665C73.8557 24.665 74.6912 25.6285 74.6912 26.7847Z" fill="white"/>
<path d="M86.4817 26.7847C86.4817 27.9409 85.6462 28.9044 84.5321 28.9044C83.5109 28.9044 82.5825 27.9409 82.5825 26.7847C82.5825 25.6285 83.4181 24.665 84.5321 24.665C85.5533 24.665 86.4817 25.6285 86.4817 26.7847Z" fill="white"/>
<path d="M98.2723 26.7847C98.2723 27.9409 97.4367 28.9044 96.3227 28.9044C95.3014 28.9044 94.373 27.9409 94.373 26.7847C94.373 25.6285 95.2086 24.665 96.3227 24.665C97.3439 24.665 98.2723 25.6285 98.2723 26.7847Z" fill="white"/>
<path d="M109.97 26.7847C109.97 27.9409 109.134 28.9044 108.02 28.9044C106.999 28.9044 106.07 27.9409 106.07 26.7847C106.07 25.6285 106.906 24.665 108.02 24.665C109.134 24.665 109.97 25.6285 109.97 26.7847Z" fill="white"/>
<path d="M121.76 26.7847C121.76 27.9409 120.925 28.9044 119.81 28.9044C118.789 28.9044 117.861 27.9409 117.861 26.7847C117.861 25.6285 118.696 24.665 119.81 24.665C120.925 24.665 121.76 25.6285 121.76 26.7847Z" fill="white"/>
<path d="M133.551 26.7847C133.551 27.9409 132.715 28.9044 131.601 28.9044C130.58 28.9044 129.651 27.9409 129.651 26.7847C129.651 25.6285 130.487 24.665 131.601 24.665C132.715 24.665 133.551 25.6285 133.551 26.7847Z" fill="white"/>
<path d="M4.83183 2.11966C4.83183 3.27583 3.99628 4.23932 2.88222 4.23932C1.861 4.23932 0.932617 3.27583 0.932617 2.11966C0.932617 0.963478 1.76817 0 2.88222 0C3.99628 0 4.83183 0.963478 4.83183 2.11966Z" fill="white"/>
<path d="M16.6223 2.11966C16.6223 3.27583 15.7868 4.23932 14.6728 4.23932C13.6515 4.23932 12.7231 3.27583 12.7231 2.11966C12.7231 0.963478 13.5587 0 14.6728 0C15.694 0 16.6223 0.963478 16.6223 2.11966Z" fill="white"/>
<path d="M28.4129 2.11966C28.4129 3.27583 27.5773 4.23932 26.4633 4.23932C25.4421 4.23932 24.5137 3.27583 24.5137 2.11966C24.5137 0.963478 25.3492 0 26.4633 0C27.4845 0 28.4129 0.963478 28.4129 2.11966Z" fill="white"/>
<path d="M40.1102 2.11966C40.1102 3.27583 39.2746 4.23932 38.1605 4.23932C37.1393 4.23932 36.2109 3.27583 36.2109 2.11966C36.2109 0.963478 37.0465 0 38.1605 0C39.2746 0 40.1102 0.963478 40.1102 2.11966Z" fill="white"/>
<path d="M51.9006 2.11966C51.9006 3.27583 51.0651 4.23932 49.9511 4.23932C48.9299 4.23932 48.0015 3.27583 48.0015 2.11966C48.0015 0.963478 48.837 0 49.9511 0C51.0651 0 51.9006 0.963478 51.9006 2.11966Z" fill="white"/>
<path d="M63.6912 2.11966C63.6912 3.27583 62.8557 4.23932 61.7416 4.23932C60.7204 4.23932 59.792 3.27583 59.792 2.11966C59.792 0.963478 60.6275 0 61.7416 0C62.8557 0 63.6912 0.963478 63.6912 2.11966Z" fill="white"/>
<path d="M4.83183 14.4522C4.83183 15.6084 3.99628 16.5718 2.88222 16.5718C1.861 16.5718 0.932617 15.6084 0.932617 14.4522C0.932617 13.296 1.76817 12.3325 2.88222 12.3325C3.99628 12.3325 4.83183 13.296 4.83183 14.4522Z" fill="white"/>
<path d="M16.6223 14.4522C16.6223 15.6084 15.7868 16.5718 14.6728 16.5718C13.6515 16.5718 12.7231 15.6084 12.7231 14.4522C12.7231 13.296 13.5587 12.3325 14.6728 12.3325C15.694 12.3325 16.6223 13.296 16.6223 14.4522Z" fill="white"/>
<path d="M28.4129 14.4522C28.4129 15.6084 27.5773 16.5718 26.4633 16.5718C25.4421 16.5718 24.5137 15.6084 24.5137 14.4522C24.5137 13.296 25.3492 12.3325 26.4633 12.3325C27.4845 12.3325 28.4129 13.296 28.4129 14.4522Z" fill="white"/>
<path d="M40.1102 14.4522C40.1102 15.6084 39.2746 16.5718 38.1605 16.5718C37.1393 16.5718 36.2109 15.6084 36.2109 14.4522C36.2109 13.296 37.0465 12.3325 38.1605 12.3325C39.2746 12.3325 40.1102 13.296 40.1102 14.4522Z" fill="white"/>
<path d="M51.9006 14.4522C51.9006 15.6084 51.0651 16.5718 49.9511 16.5718C48.9299 16.5718 48.0015 15.6084 48.0015 14.4522C48.0015 13.296 48.837 12.3325 49.9511 12.3325C51.0651 12.3325 51.9006 13.296 51.9006 14.4522Z" fill="white"/>
<path d="M63.6912 14.4522C63.6912 15.6084 62.8557 16.5718 61.7416 16.5718C60.7204 16.5718 59.792 15.6084 59.792 14.4522C59.792 13.296 60.6275 12.3325 61.7416 12.3325C62.8557 12.3325 63.6912 13.296 63.6912 14.4522Z" fill="white"/>
<path d="M4.83183 26.7847C4.83183 27.9409 3.99628 28.9044 2.88222 28.9044C1.861 28.9044 0.932617 27.9409 0.932617 26.7847C0.932617 25.6285 1.76817 24.665 2.88222 24.665C3.99628 24.665 4.83183 25.6285 4.83183 26.7847Z" fill="white"/>
<path d="M16.6223 26.7847C16.6223 27.9409 15.7868 28.9044 14.6728 28.9044C13.6515 28.9044 12.7231 27.9409 12.7231 26.7847C12.7231 25.6285 13.5587 24.665 14.6728 24.665C15.694 24.665 16.6223 25.6285 16.6223 26.7847Z" fill="white"/>
<path d="M28.4129 26.7847C28.4129 27.9409 27.5773 28.9044 26.4633 28.9044C25.4421 28.9044 24.5137 27.9409 24.5137 26.7847C24.5137 25.6285 25.3492 24.665 26.4633 24.665C27.4845 24.665 28.4129 25.6285 28.4129 26.7847Z" fill="white"/>
<path d="M40.1102 26.7847C40.1102 27.9409 39.2746 28.9044 38.1605 28.9044C37.1393 28.9044 36.2109 27.9409 36.2109 26.7847C36.2109 25.6285 37.0465 24.665 38.1605 24.665C39.2746 24.665 40.1102 25.6285 40.1102 26.7847Z" fill="white"/>
<path d="M51.9006 26.7847C51.9006 27.9409 51.0651 28.9044 49.9511 28.9044C48.9299 28.9044 48.0015 27.9409 48.0015 26.7847C48.0015 25.6285 48.837 24.665 49.9511 24.665C51.0651 24.665 51.9006 25.6285 51.9006 26.7847Z" fill="white"/>
<path d="M63.6912 26.7847C63.6912 27.9409 62.8557 28.9044 61.7416 28.9044C60.7204 28.9044 59.792 27.9409 59.792 26.7847C59.792 25.6285 60.6275 24.665 61.7416 24.665C62.8557 24.665 63.6912 25.6285 63.6912 26.7847Z" fill="white"/>
</g>
</svg>
