<svg width="1188" height="168" viewBox="0 0 1188 168" fill="none" xmlns="http://www.w3.org/2000/svg">
<g filter="url(#filter0_d_86_3343)">
<path d="M4 70H1184V155C1184 157.761 1181.76 160 1179 160H9.00001C6.23858 160 4 157.761 4 155V70Z" stroke="#389B99" stroke-width="16" mask="url(#path-1-inside-1_86_3343)"/>
<path d="M4 5C4 2.23858 6.23858 0 9 0H1179C1181.76 0 1184 2.23858 1184 5V80H4V5Z" fill="#389B99"/>
<g opacity="0.5">
<path d="M1086.49 53.1197C1086.49 54.2758 1085.62 55.2393 1084.45 55.2393C1083.38 55.2393 1082.41 54.2758 1082.41 53.1197C1082.41 51.9635 1083.29 51 1084.45 51C1085.62 51 1086.49 51.9635 1086.49 53.1197Z" fill="white"/>
<path d="M1098.84 53.1197C1098.84 54.2758 1097.97 55.2393 1096.8 55.2393C1095.73 55.2393 1094.76 54.2758 1094.76 53.1197C1094.76 51.9635 1095.63 51 1096.8 51C1097.87 51 1098.84 51.9635 1098.84 53.1197Z" fill="white"/>
<path d="M1111.19 53.1197C1111.19 54.2758 1110.31 55.2393 1109.15 55.2393C1108.08 55.2393 1107.11 54.2758 1107.11 53.1197C1107.11 51.9635 1107.98 51 1109.15 51C1110.22 51 1111.19 51.9635 1111.19 53.1197Z" fill="white"/>
<path d="M1123.44 53.1197C1123.44 54.2758 1122.56 55.2393 1121.4 55.2393C1120.33 55.2393 1119.36 54.2758 1119.36 53.1197C1119.36 51.9635 1120.23 51 1121.4 51C1122.56 51 1123.44 51.9635 1123.44 53.1197Z" fill="white"/>
<path d="M1135.79 53.1197C1135.79 54.2758 1134.91 55.2393 1133.75 55.2393C1132.68 55.2393 1131.7 54.2758 1131.7 53.1197C1131.7 51.9635 1132.58 51 1133.75 51C1134.91 51 1135.79 51.9635 1135.79 53.1197Z" fill="white"/>
<path d="M1148.13 53.1197C1148.13 54.2758 1147.26 55.2393 1146.09 55.2393C1145.02 55.2393 1144.05 54.2758 1144.05 53.1197C1144.05 51.9635 1144.93 51 1146.09 51C1147.26 51 1148.13 51.9635 1148.13 53.1197Z" fill="white"/>
<path d="M1086.49 65.4522C1086.49 66.6084 1085.62 67.5718 1084.45 67.5718C1083.38 67.5718 1082.41 66.6084 1082.41 65.4522C1082.41 64.296 1083.29 63.3325 1084.45 63.3325C1085.62 63.3325 1086.49 64.296 1086.49 65.4522Z" fill="white"/>
<path d="M1098.84 65.4522C1098.84 66.6084 1097.97 67.5718 1096.8 67.5718C1095.73 67.5718 1094.76 66.6084 1094.76 65.4522C1094.76 64.296 1095.63 63.3325 1096.8 63.3325C1097.87 63.3325 1098.84 64.296 1098.84 65.4522Z" fill="white"/>
<path d="M1111.19 65.4522C1111.19 66.6084 1110.31 67.5718 1109.15 67.5718C1108.08 67.5718 1107.11 66.6084 1107.11 65.4522C1107.11 64.296 1107.98 63.3325 1109.15 63.3325C1110.22 63.3325 1111.19 64.296 1111.19 65.4522Z" fill="white"/>
<path d="M1123.44 65.4522C1123.44 66.6084 1122.56 67.5718 1121.4 67.5718C1120.33 67.5718 1119.36 66.6084 1119.36 65.4522C1119.36 64.296 1120.23 63.3325 1121.4 63.3325C1122.56 63.3325 1123.44 64.296 1123.44 65.4522Z" fill="white"/>
<path d="M1135.79 65.4522C1135.79 66.6084 1134.91 67.5718 1133.75 67.5718C1132.68 67.5718 1131.7 66.6084 1131.7 65.4522C1131.7 64.296 1132.58 63.3325 1133.75 63.3325C1134.91 63.3325 1135.79 64.296 1135.79 65.4522Z" fill="white"/>
<path d="M1148.13 65.4522C1148.13 66.6084 1147.26 67.5718 1146.09 67.5718C1145.02 67.5718 1144.05 66.6084 1144.05 65.4522C1144.05 64.296 1144.93 63.3325 1146.09 63.3325C1147.26 63.3325 1148.13 64.296 1148.13 65.4522Z" fill="white"/>
<path d="M1086.49 77.7847C1086.49 78.9409 1085.62 79.9044 1084.45 79.9044C1083.38 79.9044 1082.41 78.9409 1082.41 77.7847C1082.41 76.6285 1083.29 75.665 1084.45 75.665C1085.62 75.665 1086.49 76.6285 1086.49 77.7847Z" fill="white"/>
<path d="M1098.84 77.7847C1098.84 78.9409 1097.97 79.9044 1096.8 79.9044C1095.73 79.9044 1094.76 78.9409 1094.76 77.7847C1094.76 76.6285 1095.63 75.665 1096.8 75.665C1097.87 75.665 1098.84 76.6285 1098.84 77.7847Z" fill="white"/>
<path d="M1111.19 77.7847C1111.19 78.9409 1110.31 79.9044 1109.15 79.9044C1108.08 79.9044 1107.11 78.9409 1107.11 77.7847C1107.11 76.6285 1107.98 75.665 1109.15 75.665C1110.22 75.665 1111.19 76.6285 1111.19 77.7847Z" fill="white"/>
<path d="M1123.44 77.7847C1123.44 78.9409 1122.56 79.9044 1121.4 79.9044C1120.33 79.9044 1119.36 78.9409 1119.36 77.7847C1119.36 76.6285 1120.23 75.665 1121.4 75.665C1122.56 75.665 1123.44 76.6285 1123.44 77.7847Z" fill="white"/>
<path d="M1135.79 77.7847C1135.79 78.9409 1134.91 79.9044 1133.75 79.9044C1132.68 79.9044 1131.7 78.9409 1131.7 77.7847C1131.7 76.6285 1132.58 75.665 1133.75 75.665C1134.91 75.665 1135.79 76.6285 1135.79 77.7847Z" fill="white"/>
<path d="M1148.13 77.7847C1148.13 78.9409 1147.26 79.9044 1146.09 79.9044C1145.02 79.9044 1144.05 78.9409 1144.05 77.7847C1144.05 76.6285 1144.93 75.665 1146.09 75.665C1147.26 75.665 1148.13 76.6285 1148.13 77.7847Z" fill="white"/>
<path d="M1013.33 53.1197C1013.33 54.2758 1012.46 55.2393 1011.29 55.2393C1010.22 55.2393 1009.25 54.2758 1009.25 53.1197C1009.25 51.9635 1010.12 51 1011.29 51C1012.46 51 1013.33 51.9635 1013.33 53.1197Z" fill="white"/>
<path d="M1025.68 53.1197C1025.68 54.2758 1024.81 55.2393 1023.64 55.2393C1022.57 55.2393 1021.6 54.2758 1021.6 53.1197C1021.6 51.9635 1022.47 51 1023.64 51C1024.71 51 1025.68 51.9635 1025.68 53.1197Z" fill="white"/>
<path d="M1038.03 53.1197C1038.03 54.2758 1037.15 55.2393 1035.99 55.2393C1034.92 55.2393 1033.94 54.2758 1033.94 53.1197C1033.94 51.9635 1034.82 51 1035.99 51C1037.06 51 1038.03 51.9635 1038.03 53.1197Z" fill="white"/>
<path d="M1050.28 53.1197C1050.28 54.2758 1049.4 55.2393 1048.24 55.2393C1047.17 55.2393 1046.19 54.2758 1046.19 53.1197C1046.19 51.9635 1047.07 51 1048.24 51C1049.4 51 1050.28 51.9635 1050.28 53.1197Z" fill="white"/>
<path d="M1062.63 53.1197C1062.63 54.2758 1061.75 55.2393 1060.58 55.2393C1059.51 55.2393 1058.54 54.2758 1058.54 53.1197C1058.54 51.9635 1059.42 51 1060.58 51C1061.75 51 1062.63 51.9635 1062.63 53.1197Z" fill="white"/>
<path d="M1074.97 53.1197C1074.97 54.2758 1074.1 55.2393 1072.93 55.2393C1071.86 55.2393 1070.89 54.2758 1070.89 53.1197C1070.89 51.9635 1071.77 51 1072.93 51C1074.1 51 1074.97 51.9635 1074.97 53.1197Z" fill="white"/>
<path d="M1013.33 65.4522C1013.33 66.6084 1012.46 67.5718 1011.29 67.5718C1010.22 67.5718 1009.25 66.6084 1009.25 65.4522C1009.25 64.296 1010.12 63.3325 1011.29 63.3325C1012.46 63.3325 1013.33 64.296 1013.33 65.4522Z" fill="white"/>
<path d="M1025.68 65.4522C1025.68 66.6084 1024.81 67.5718 1023.64 67.5718C1022.57 67.5718 1021.6 66.6084 1021.6 65.4522C1021.6 64.296 1022.47 63.3325 1023.64 63.3325C1024.71 63.3325 1025.68 64.296 1025.68 65.4522Z" fill="white"/>
<path d="M1038.03 65.4522C1038.03 66.6084 1037.15 67.5718 1035.99 67.5718C1034.92 67.5718 1033.94 66.6084 1033.94 65.4522C1033.94 64.296 1034.82 63.3325 1035.99 63.3325C1037.06 63.3325 1038.03 64.296 1038.03 65.4522Z" fill="white"/>
<path d="M1050.28 65.4522C1050.28 66.6084 1049.4 67.5718 1048.24 67.5718C1047.17 67.5718 1046.19 66.6084 1046.19 65.4522C1046.19 64.296 1047.07 63.3325 1048.24 63.3325C1049.4 63.3325 1050.28 64.296 1050.28 65.4522Z" fill="white"/>
<path d="M1062.63 65.4522C1062.63 66.6084 1061.75 67.5718 1060.58 67.5718C1059.51 67.5718 1058.54 66.6084 1058.54 65.4522C1058.54 64.296 1059.42 63.3325 1060.58 63.3325C1061.75 63.3325 1062.63 64.296 1062.63 65.4522Z" fill="white"/>
<path d="M1074.97 65.4522C1074.97 66.6084 1074.1 67.5718 1072.93 67.5718C1071.86 67.5718 1070.89 66.6084 1070.89 65.4522C1070.89 64.296 1071.77 63.3325 1072.93 63.3325C1074.1 63.3325 1074.97 64.296 1074.97 65.4522Z" fill="white"/>
<path d="M1013.33 77.7847C1013.33 78.9409 1012.46 79.9044 1011.29 79.9044C1010.22 79.9044 1009.25 78.9409 1009.25 77.7847C1009.25 76.6285 1010.12 75.665 1011.29 75.665C1012.46 75.665 1013.33 76.6285 1013.33 77.7847Z" fill="white"/>
<path d="M1025.68 77.7847C1025.68 78.9409 1024.81 79.9044 1023.64 79.9044C1022.57 79.9044 1021.6 78.9409 1021.6 77.7847C1021.6 76.6285 1022.47 75.665 1023.64 75.665C1024.71 75.665 1025.68 76.6285 1025.68 77.7847Z" fill="white"/>
<path d="M1038.03 77.7847C1038.03 78.9409 1037.15 79.9044 1035.99 79.9044C1034.92 79.9044 1033.94 78.9409 1033.94 77.7847C1033.94 76.6285 1034.82 75.665 1035.99 75.665C1037.06 75.665 1038.03 76.6285 1038.03 77.7847Z" fill="white"/>
<path d="M1050.28 77.7847C1050.28 78.9409 1049.4 79.9044 1048.24 79.9044C1047.17 79.9044 1046.19 78.9409 1046.19 77.7847C1046.19 76.6285 1047.07 75.665 1048.24 75.665C1049.4 75.665 1050.28 76.6285 1050.28 77.7847Z" fill="white"/>
<path d="M1062.63 77.7847C1062.63 78.9409 1061.75 79.9044 1060.58 79.9044C1059.51 79.9044 1058.54 78.9409 1058.54 77.7847C1058.54 76.6285 1059.42 75.665 1060.58 75.665C1061.75 75.665 1062.63 76.6285 1062.63 77.7847Z" fill="white"/>
<path d="M1074.97 77.7847C1074.97 78.9409 1074.1 79.9044 1072.93 79.9044C1071.86 79.9044 1070.89 78.9409 1070.89 77.7847C1070.89 76.6285 1071.77 75.665 1072.93 75.665C1074.1 75.665 1074.97 76.6285 1074.97 77.7847Z" fill="white"/>
<path d="M940.172 53.1197C940.172 54.2758 939.297 55.2393 938.13 55.2393C937.061 55.2393 936.088 54.2758 936.088 53.1197C936.088 51.9635 936.963 51 938.13 51C939.297 51 940.172 51.9635 940.172 53.1197Z" fill="white"/>
<path d="M952.519 53.1197C952.519 54.2758 951.644 55.2393 950.478 55.2393C949.408 55.2393 948.436 54.2758 948.436 53.1197C948.436 51.9635 949.311 51 950.478 51C951.547 51 952.519 51.9635 952.519 53.1197Z" fill="white"/>
<path d="M964.867 53.1197C964.867 54.2758 963.992 55.2393 962.825 55.2393C961.756 55.2393 960.784 54.2758 960.784 53.1197C960.784 51.9635 961.659 51 962.825 51C963.895 51 964.867 51.9635 964.867 53.1197Z" fill="white"/>
<path d="M977.118 53.1197C977.118 54.2758 976.243 55.2393 975.076 55.2393C974.006 55.2393 973.034 54.2758 973.034 53.1197C973.034 51.9635 973.909 51 975.076 51C976.243 51 977.118 51.9635 977.118 53.1197Z" fill="white"/>
<path d="M989.465 53.1197C989.465 54.2758 988.59 55.2393 987.424 55.2393C986.354 55.2393 985.382 54.2758 985.382 53.1197C985.382 51.9635 986.257 51 987.424 51C988.59 51 989.465 51.9635 989.465 53.1197Z" fill="white"/>
<path d="M1001.81 53.1197C1001.81 54.2758 1000.94 55.2393 999.771 55.2393C998.702 55.2393 997.729 54.2758 997.729 53.1197C997.729 51.9635 998.605 51 999.771 51C1000.94 51 1001.81 51.9635 1001.81 53.1197Z" fill="white"/>
<path d="M940.172 65.4522C940.172 66.6084 939.297 67.5718 938.13 67.5718C937.061 67.5718 936.088 66.6084 936.088 65.4522C936.088 64.296 936.963 63.3325 938.13 63.3325C939.297 63.3325 940.172 64.296 940.172 65.4522Z" fill="white"/>
<path d="M952.519 65.4522C952.519 66.6084 951.644 67.5718 950.478 67.5718C949.408 67.5718 948.436 66.6084 948.436 65.4522C948.436 64.296 949.311 63.3325 950.478 63.3325C951.547 63.3325 952.519 64.296 952.519 65.4522Z" fill="white"/>
<path d="M964.867 65.4522C964.867 66.6084 963.992 67.5718 962.825 67.5718C961.756 67.5718 960.784 66.6084 960.784 65.4522C960.784 64.296 961.659 63.3325 962.825 63.3325C963.895 63.3325 964.867 64.296 964.867 65.4522Z" fill="white"/>
<path d="M977.118 65.4522C977.118 66.6084 976.243 67.5718 975.076 67.5718C974.006 67.5718 973.034 66.6084 973.034 65.4522C973.034 64.296 973.909 63.3325 975.076 63.3325C976.243 63.3325 977.118 64.296 977.118 65.4522Z" fill="white"/>
<path d="M989.465 65.4522C989.465 66.6084 988.59 67.5718 987.424 67.5718C986.354 67.5718 985.382 66.6084 985.382 65.4522C985.382 64.296 986.257 63.3325 987.424 63.3325C988.59 63.3325 989.465 64.296 989.465 65.4522Z" fill="white"/>
<path d="M1001.81 65.4522C1001.81 66.6084 1000.94 67.5718 999.771 67.5718C998.702 67.5718 997.729 66.6084 997.729 65.4522C997.729 64.296 998.605 63.3325 999.771 63.3325C1000.94 63.3325 1001.81 64.296 1001.81 65.4522Z" fill="white"/>
<path d="M940.172 77.7847C940.172 78.9409 939.297 79.9044 938.13 79.9044C937.061 79.9044 936.088 78.9409 936.088 77.7847C936.088 76.6285 936.963 75.665 938.13 75.665C939.297 75.665 940.172 76.6285 940.172 77.7847Z" fill="white"/>
<path d="M952.519 77.7847C952.519 78.9409 951.644 79.9044 950.478 79.9044C949.408 79.9044 948.436 78.9409 948.436 77.7847C948.436 76.6285 949.311 75.665 950.478 75.665C951.547 75.665 952.519 76.6285 952.519 77.7847Z" fill="white"/>
<path d="M964.867 77.7847C964.867 78.9409 963.992 79.9044 962.825 79.9044C961.756 79.9044 960.784 78.9409 960.784 77.7847C960.784 76.6285 961.659 75.665 962.825 75.665C963.895 75.665 964.867 76.6285 964.867 77.7847Z" fill="white"/>
<path d="M977.118 77.7847C977.118 78.9409 976.243 79.9044 975.076 79.9044C974.006 79.9044 973.034 78.9409 973.034 77.7847C973.034 76.6285 973.909 75.665 975.076 75.665C976.243 75.665 977.118 76.6285 977.118 77.7847Z" fill="white"/>
<path d="M989.465 77.7847C989.465 78.9409 988.59 79.9044 987.424 79.9044C986.354 79.9044 985.382 78.9409 985.382 77.7847C985.382 76.6285 986.257 75.665 987.424 75.665C988.59 75.665 989.465 76.6285 989.465 77.7847Z" fill="white"/>
<path d="M1001.81 77.7847C1001.81 78.9409 1000.94 79.9044 999.771 79.9044C998.702 79.9044 997.729 78.9409 997.729 77.7847C997.729 76.6285 998.605 75.665 999.771 75.665C1000.94 75.665 1001.81 76.6285 1001.81 77.7847Z" fill="white"/>
<path d="M867.011 53.1197C867.011 54.2758 866.136 55.2393 864.969 55.2393C863.9 55.2393 862.928 54.2758 862.928 53.1197C862.928 51.9635 863.803 51 864.969 51C866.136 51 867.011 51.9635 867.011 53.1197Z" fill="white"/>
<path d="M879.359 53.1197C879.359 54.2758 878.484 55.2393 877.317 55.2393C876.248 55.2393 875.275 54.2758 875.275 53.1197C875.275 51.9635 876.15 51 877.317 51C878.387 51 879.359 51.9635 879.359 53.1197Z" fill="white"/>
<path d="M891.707 53.1197C891.707 54.2758 890.831 55.2393 889.665 55.2393C888.595 55.2393 887.623 54.2758 887.623 53.1197C887.623 51.9635 888.498 51 889.665 51C890.734 51 891.707 51.9635 891.707 53.1197Z" fill="white"/>
<path d="M903.957 53.1197C903.957 54.2758 903.082 55.2393 901.915 55.2393C900.846 55.2393 899.874 54.2758 899.874 53.1197C899.874 51.9635 900.749 51 901.915 51C903.082 51 903.957 51.9635 903.957 53.1197Z" fill="white"/>
<path d="M916.305 53.1197C916.305 54.2758 915.43 55.2393 914.263 55.2393C913.193 55.2393 912.221 54.2758 912.221 53.1197C912.221 51.9635 913.096 51 914.263 51C915.43 51 916.305 51.9635 916.305 53.1197Z" fill="white"/>
<path d="M928.652 53.1197C928.652 54.2758 927.777 55.2393 926.611 55.2393C925.541 55.2393 924.569 54.2758 924.569 53.1197C924.569 51.9635 925.444 51 926.611 51C927.777 51 928.652 51.9635 928.652 53.1197Z" fill="white"/>
<path d="M867.011 65.4522C867.011 66.6084 866.136 67.5718 864.969 67.5718C863.9 67.5718 862.928 66.6084 862.928 65.4522C862.928 64.296 863.803 63.3325 864.969 63.3325C866.136 63.3325 867.011 64.296 867.011 65.4522Z" fill="white"/>
<path d="M879.359 65.4522C879.359 66.6084 878.484 67.5718 877.317 67.5718C876.248 67.5718 875.275 66.6084 875.275 65.4522C875.275 64.296 876.15 63.3325 877.317 63.3325C878.387 63.3325 879.359 64.296 879.359 65.4522Z" fill="white"/>
<path d="M891.707 65.4522C891.707 66.6084 890.831 67.5718 889.665 67.5718C888.595 67.5718 887.623 66.6084 887.623 65.4522C887.623 64.296 888.498 63.3325 889.665 63.3325C890.734 63.3325 891.707 64.296 891.707 65.4522Z" fill="white"/>
<path d="M903.957 65.4522C903.957 66.6084 903.082 67.5718 901.915 67.5718C900.846 67.5718 899.874 66.6084 899.874 65.4522C899.874 64.296 900.749 63.3325 901.915 63.3325C903.082 63.3325 903.957 64.296 903.957 65.4522Z" fill="white"/>
<path d="M916.305 65.4522C916.305 66.6084 915.43 67.5718 914.263 67.5718C913.193 67.5718 912.221 66.6084 912.221 65.4522C912.221 64.296 913.096 63.3325 914.263 63.3325C915.43 63.3325 916.305 64.296 916.305 65.4522Z" fill="white"/>
<path d="M928.652 65.4522C928.652 66.6084 927.777 67.5718 926.611 67.5718C925.541 67.5718 924.569 66.6084 924.569 65.4522C924.569 64.296 925.444 63.3325 926.611 63.3325C927.777 63.3325 928.652 64.296 928.652 65.4522Z" fill="white"/>
<path d="M867.011 77.7847C867.011 78.9409 866.136 79.9044 864.969 79.9044C863.9 79.9044 862.928 78.9409 862.928 77.7847C862.928 76.6285 863.803 75.665 864.969 75.665C866.136 75.665 867.011 76.6285 867.011 77.7847Z" fill="white"/>
<path d="M879.359 77.7847C879.359 78.9409 878.484 79.9044 877.317 79.9044C876.248 79.9044 875.275 78.9409 875.275 77.7847C875.275 76.6285 876.15 75.665 877.317 75.665C878.387 75.665 879.359 76.6285 879.359 77.7847Z" fill="white"/>
<path d="M891.707 77.7847C891.707 78.9409 890.831 79.9044 889.665 79.9044C888.595 79.9044 887.623 78.9409 887.623 77.7847C887.623 76.6285 888.498 75.665 889.665 75.665C890.734 75.665 891.707 76.6285 891.707 77.7847Z" fill="white"/>
<path d="M903.957 77.7847C903.957 78.9409 903.082 79.9044 901.915 79.9044C900.846 79.9044 899.874 78.9409 899.874 77.7847C899.874 76.6285 900.749 75.665 901.915 75.665C903.082 75.665 903.957 76.6285 903.957 77.7847Z" fill="white"/>
<path d="M916.305 77.7847C916.305 78.9409 915.43 79.9044 914.263 79.9044C913.193 79.9044 912.221 78.9409 912.221 77.7847C912.221 76.6285 913.096 75.665 914.263 75.665C915.43 75.665 916.305 76.6285 916.305 77.7847Z" fill="white"/>
<path d="M928.652 77.7847C928.652 78.9409 927.777 79.9044 926.611 79.9044C925.541 79.9044 924.569 78.9409 924.569 77.7847C924.569 76.6285 925.444 75.665 926.611 75.665C927.777 75.665 928.652 76.6285 928.652 77.7847Z" fill="white"/>
<path d="M793.851 53.1197C793.851 54.2758 792.976 55.2393 791.809 55.2393C790.739 55.2393 789.767 54.2758 789.767 53.1197C789.767 51.9635 790.642 51 791.809 51C792.976 51 793.851 51.9635 793.851 53.1197Z" fill="white"/>
<path d="M806.198 53.1197C806.198 54.2758 805.323 55.2393 804.156 55.2393C803.087 55.2393 802.115 54.2758 802.115 53.1197C802.115 51.9635 802.99 51 804.156 51C805.226 51 806.198 51.9635 806.198 53.1197Z" fill="white"/>
<path d="M818.546 53.1197C818.546 54.2758 817.671 55.2393 816.504 55.2393C815.435 55.2393 814.462 54.2758 814.462 53.1197C814.462 51.9635 815.337 51 816.504 51C817.574 51 818.546 51.9635 818.546 53.1197Z" fill="white"/>
<path d="M830.796 53.1197C830.796 54.2758 829.921 55.2393 828.755 55.2393C827.685 55.2393 826.713 54.2758 826.713 53.1197C826.713 51.9635 827.588 51 828.755 51C829.921 51 830.796 51.9635 830.796 53.1197Z" fill="white"/>
<path d="M843.144 53.1197C843.144 54.2758 842.269 55.2393 841.102 55.2393C840.033 55.2393 839.061 54.2758 839.061 53.1197C839.061 51.9635 839.936 51 841.102 51C842.269 51 843.144 51.9635 843.144 53.1197Z" fill="white"/>
<path d="M855.492 53.1197C855.492 54.2758 854.617 55.2393 853.45 55.2393C852.38 55.2393 851.408 54.2758 851.408 53.1197C851.408 51.9635 852.283 51 853.45 51C854.617 51 855.492 51.9635 855.492 53.1197Z" fill="white"/>
<path d="M793.851 65.4522C793.851 66.6084 792.976 67.5718 791.809 67.5718C790.739 67.5718 789.767 66.6084 789.767 65.4522C789.767 64.296 790.642 63.3325 791.809 63.3325C792.976 63.3325 793.851 64.296 793.851 65.4522Z" fill="white"/>
<path d="M806.198 65.4522C806.198 66.6084 805.323 67.5718 804.156 67.5718C803.087 67.5718 802.115 66.6084 802.115 65.4522C802.115 64.296 802.99 63.3325 804.156 63.3325C805.226 63.3325 806.198 64.296 806.198 65.4522Z" fill="white"/>
<path d="M818.546 65.4522C818.546 66.6084 817.671 67.5718 816.504 67.5718C815.435 67.5718 814.462 66.6084 814.462 65.4522C814.462 64.296 815.337 63.3325 816.504 63.3325C817.574 63.3325 818.546 64.296 818.546 65.4522Z" fill="white"/>
<path d="M830.796 65.4522C830.796 66.6084 829.921 67.5718 828.755 67.5718C827.685 67.5718 826.713 66.6084 826.713 65.4522C826.713 64.296 827.588 63.3325 828.755 63.3325C829.921 63.3325 830.796 64.296 830.796 65.4522Z" fill="white"/>
<path d="M843.144 65.4522C843.144 66.6084 842.269 67.5718 841.102 67.5718C840.033 67.5718 839.061 66.6084 839.061 65.4522C839.061 64.296 839.936 63.3325 841.102 63.3325C842.269 63.3325 843.144 64.296 843.144 65.4522Z" fill="white"/>
<path d="M855.492 65.4522C855.492 66.6084 854.617 67.5718 853.45 67.5718C852.38 67.5718 851.408 66.6084 851.408 65.4522C851.408 64.296 852.283 63.3325 853.45 63.3325C854.617 63.3325 855.492 64.296 855.492 65.4522Z" fill="white"/>
<path d="M793.851 77.7847C793.851 78.9409 792.976 79.9044 791.809 79.9044C790.739 79.9044 789.767 78.9409 789.767 77.7847C789.767 76.6285 790.642 75.665 791.809 75.665C792.976 75.665 793.851 76.6285 793.851 77.7847Z" fill="white"/>
<path d="M806.198 77.7847C806.198 78.9409 805.323 79.9044 804.156 79.9044C803.087 79.9044 802.115 78.9409 802.115 77.7847C802.115 76.6285 802.99 75.665 804.156 75.665C805.226 75.665 806.198 76.6285 806.198 77.7847Z" fill="white"/>
<path d="M818.546 77.7847C818.546 78.9409 817.671 79.9044 816.504 79.9044C815.435 79.9044 814.462 78.9409 814.462 77.7847C814.462 76.6285 815.337 75.665 816.504 75.665C817.574 75.665 818.546 76.6285 818.546 77.7847Z" fill="white"/>
<path d="M830.796 77.7847C830.796 78.9409 829.921 79.9044 828.755 79.9044C827.685 79.9044 826.713 78.9409 826.713 77.7847C826.713 76.6285 827.588 75.665 828.755 75.665C829.921 75.665 830.796 76.6285 830.796 77.7847Z" fill="white"/>
<path d="M843.144 77.7847C843.144 78.9409 842.269 79.9044 841.102 79.9044C840.033 79.9044 839.061 78.9409 839.061 77.7847C839.061 76.6285 839.936 75.665 841.102 75.665C842.269 75.665 843.144 76.6285 843.144 77.7847Z" fill="white"/>
<path d="M855.492 77.7847C855.492 78.9409 854.617 79.9044 853.45 79.9044C852.38 79.9044 851.408 78.9409 851.408 77.7847C851.408 76.6285 852.283 75.665 853.45 75.665C854.617 75.665 855.492 76.6285 855.492 77.7847Z" fill="white"/>
</g>
</g>
<defs>
<filter id="filter0_d_86_3343" x="0" y="0" width="1188" height="168" filterUnits="userSpaceOnUse" color-interpolation-filters="sRGB">
<feFlood flood-opacity="0" result="BackgroundImageFix"/>
<feColorMatrix in="SourceAlpha" type="matrix" values="0 0 0 0 0 0 0 0 0 0 0 0 0 0 0 0 0 0 127 0" result="hardAlpha"/>
<feOffset dy="4"/>
<feGaussianBlur stdDeviation="2"/>
<feComposite in2="hardAlpha" operator="out"/>
<feColorMatrix type="matrix" values="0 0 0 0 0 0 0 0 0 0 0 0 0 0 0 0 0 0 0.15 0"/>
<feBlend mode="normal" in2="BackgroundImageFix" result="effect1_dropShadow_86_3343"/>
<feBlend mode="normal" in="SourceGraphic" in2="effect1_dropShadow_86_3343" result="shape"/>
</filter>
</defs>
</svg>
