<svg width="24" height="25" viewBox="0 0 24 25" fill="none" xmlns="http://www.w3.org/2000/svg">
<rect y="0.5" width="24" height="24" rx="5" fill="#389B99"/>
<path d="M9.103 15.1206H6.546C6.146 15.1206 6 14.9756 6 14.5706C6 13.5306 6 12.4903 6 11.4496C6 11.0496 6.152 10.8976 6.549 10.8966H9.103C9.103 10.8256 9.103 9.32359 9.103 8.63159C9.07216 7.61965 9.31393 6.61803 9.803 5.73159C10.3144 4.83871 11.1312 4.16073 12.103 3.82259C12.7352 3.59992 13.4018 3.49091 14.072 3.50059C14.9153 3.50059 15.7587 3.50059 16.602 3.50059C16.965 3.50059 17.125 3.66159 17.126 4.02659C17.126 5.00526 17.126 5.98359 17.126 6.96159C17.126 7.33059 16.971 7.47859 16.601 7.48259C15.91 7.48959 15.218 7.48259 14.527 7.51359C14.3825 7.49267 14.2351 7.50573 14.0966 7.55173C13.958 7.59774 13.8321 7.67542 13.7288 7.77862C13.6255 7.88181 13.5477 8.00766 13.5015 8.14618C13.4554 8.28471 13.4422 8.43208 13.463 8.57659C13.446 9.34059 13.456 10.1046 13.456 10.8966H16.434C16.855 10.8966 17 11.0416 17 11.4656C17 12.5003 17 13.5336 17 14.5656C17 14.9836 16.864 15.1166 16.44 15.1166H13.447V23.4906C13.447 23.9366 13.307 24.0796 12.866 24.0796H9.644C9.255 24.0796 9.103 23.9286 9.103 23.5386C9.103 20.8156 9.103 15.2166 9.103 15.1206Z" fill="white"/>
</svg>
