<svg width="46" height="45" viewBox="0 0 46 45" fill="none" xmlns="http://www.w3.org/2000/svg">
<g clip-path="url(#clip0_185_3037)">
<path d="M22.6548 45C35.0812 45 45.1548 34.9264 45.1548 22.5C45.1548 10.0736 35.0812 0 22.6548 0C10.2284 0 0.154785 10.0736 0.154785 22.5C0.154785 34.9264 10.2284 45 22.6548 45Z" fill="#5CB9B8"/>
<path d="M34.369 37.0048L10.7152 36.8043L11.0137 8.29597L34.596 8.33438L34.369 37.0048Z" fill="white" stroke="#535353"/>
<path d="M32.1431 27.1798L13.2646 27.3678L13.2726 29.5691L32.1511 29.381L32.1431 27.1798Z" fill="#FFF24E"/>
<path d="M23.558 23.567L13.251 23.6697L13.2589 25.8709L23.5659 25.7683L23.558 23.567Z" fill="#FFF24E"/>
<path d="M32.0455 17.6151L13.167 17.8031L13.1749 20.0044L32.0534 19.8163L32.0455 17.6151Z" fill="#FFF24E"/>
<path d="M23.4618 14.0001L13.1548 14.1028L13.1627 16.3041L23.4697 16.2014L23.4618 14.0001Z" fill="#FFF24E"/>
</g>
<defs>
<clipPath id="clip0_185_3037">
<rect width="45" height="45" fill="white" transform="translate(0.154785)"/>
</clipPath>
</defs>
</svg>
