<svg width="53" height="125" viewBox="0 0 53 125" fill="none" xmlns="http://www.w3.org/2000/svg">
<path d="M28.8539 6.32104H24.9331V89.5295H28.8539V6.32104Z" fill="#525E61"/>
<path fill-rule="evenodd" clip-rule="evenodd" d="M22.1447 0.570312H31.9903C33.82 0.570312 35.2141 2.05151 35.2141 3.88123C35.2141 5.71094 33.7329 7.19214 31.9903 7.19214H22.1447C20.315 7.19214 18.9209 5.71094 18.9209 3.88123C18.9209 2.05151 20.315 0.570312 22.1447 0.570312Z" fill="#292F31"/>
<path fill-rule="evenodd" clip-rule="evenodd" d="M21.2734 98.068H32.3388V92.666C32.3388 92.1432 31.9032 91.7947 31.4675 91.7947H22.2318C21.7091 91.7947 21.3605 92.2303 21.3605 92.666V98.068H21.2734Z" fill="#292F31"/>
<path fill-rule="evenodd" clip-rule="evenodd" d="M32.2517 92.4919C32.1646 92.0563 31.8161 91.7078 31.3804 91.7078H22.1447C21.7091 91.7078 21.3606 92.0563 21.2734 92.4919H32.2517Z" fill="#525E61"/>
<path fill-rule="evenodd" clip-rule="evenodd" d="M23.5391 91.8819H29.9867V89.1809C29.9867 88.6581 29.551 88.3096 29.1154 88.3096H24.4104C23.8876 88.3096 23.5391 88.7452 23.5391 89.1809V91.8819Z" fill="#292F31"/>
<path fill-rule="evenodd" clip-rule="evenodd" d="M29.9867 89.0066C29.8995 88.571 29.551 88.3096 29.1154 88.3096H24.4104C23.9747 88.3096 23.6262 88.571 23.5391 89.0066H29.9867Z" fill="#525E61"/>
<path fill-rule="evenodd" clip-rule="evenodd" d="M11.7764 97.7195L17.0913 102.686L4.28331 113.926L1.66943 111.486L11.7764 97.7195ZM11.4279 103.47C11.1665 103.209 10.7309 103.209 10.4695 103.47L6.37438 107.826C6.113 108.088 6.113 108.524 6.37438 108.785C6.63577 109.046 7.07145 109.046 7.33284 108.785L11.4279 104.428C11.7764 104.167 11.7764 103.731 11.4279 103.47Z" fill="#292F31"/>
<path fill-rule="evenodd" clip-rule="evenodd" d="M41.1391 97.6323L35.8242 102.599L48.6322 113.838L51.2461 111.399L41.1391 97.6323ZM41.4876 103.296C41.749 103.034 42.1847 103.034 42.4461 103.296L46.5412 107.652C46.8026 107.914 46.8026 108.349 46.5412 108.611C46.2798 108.872 45.8441 108.872 45.5827 108.611L41.4876 104.254C41.2262 103.993 41.2262 103.557 41.4876 103.296Z" fill="#292F31"/>
<path fill-rule="evenodd" clip-rule="evenodd" d="M11.9508 102.947C13.432 104.341 15.6973 104.254 17.0914 102.773C18.4855 101.292 18.3984 98.9394 16.9172 97.6325C15.436 96.2384 13.1706 96.3255 11.7765 97.8067C10.3825 99.2008 10.4696 101.553 11.9508 102.947Z" fill="#525E61"/>
<path fill-rule="evenodd" clip-rule="evenodd" d="M41.0519 102.86C39.5707 104.254 37.3054 104.167 35.9113 102.686C34.5172 101.205 34.6044 98.8523 36.0856 97.5453C37.5668 96.1513 39.8321 96.2384 41.2262 97.7196C42.5331 99.1137 42.446 101.466 41.0519 102.86Z" fill="#525E61"/>
<path fill-rule="evenodd" clip-rule="evenodd" d="M1.58203 114.1L6.11277 110.092L14.2158 121.68L12.0375 123.597L1.58203 114.1ZM10.1207 119.415C10.3821 119.24 10.3821 118.892 10.2079 118.63L7.07117 114.884C6.89691 114.623 6.54842 114.623 6.28703 114.797C6.02565 114.971 6.02561 115.32 6.19987 115.581L9.33656 119.328C9.51082 119.589 9.8593 119.589 10.1207 119.415Z" fill="#292F31"/>
<path fill-rule="evenodd" clip-rule="evenodd" d="M51.4204 114.013L46.8896 110.005L38.7866 121.593L40.9649 123.51L51.4204 114.013ZM42.8817 119.327C42.6203 119.153 42.6203 118.805 42.7945 118.543L45.9312 114.797C46.1055 114.535 46.454 114.535 46.7154 114.71C46.9768 114.884 46.9768 115.232 46.8025 115.494L43.6658 119.24C43.4045 119.502 43.056 119.502 42.8817 119.327Z" fill="#292F31"/>
<path fill-rule="evenodd" clip-rule="evenodd" d="M5.85163 114.448C7.07144 113.316 7.24569 111.399 6.11301 110.179C4.98033 108.959 3.15059 108.785 1.84365 109.917C0.623842 111.05 0.449594 112.967 1.58227 114.187C2.71496 115.407 4.63182 115.581 5.85163 114.448Z" fill="#525E61"/>
<path fill-rule="evenodd" clip-rule="evenodd" d="M51.0718 114.361C52.2916 113.229 52.4659 111.312 51.3332 110.092C50.2005 108.872 48.3708 108.698 47.0639 109.831C45.8441 110.963 45.6698 112.88 46.8025 114.1C47.9352 115.32 49.852 115.494 51.0718 114.361Z" fill="#525E61"/>
<path fill-rule="evenodd" clip-rule="evenodd" d="M14.0418 97.981H38.6994C41.4876 97.981 41.4876 102.425 38.6994 102.425H14.0418C11.2536 102.512 11.2536 97.981 14.0418 97.981Z" fill="#A3BDC3"/>
<path fill-rule="evenodd" clip-rule="evenodd" d="M12.2993 123.858L12.5607 120.896L19.2697 122.726V123.074L12.2993 123.858Z" fill="#F8A74F"/>
<path fill-rule="evenodd" clip-rule="evenodd" d="M40.6163 123.684L40.4421 120.809L33.646 122.639V122.987L40.6163 123.684Z" fill="#F8A74F"/>
<path fill-rule="evenodd" clip-rule="evenodd" d="M14.9131 124.207C16.1329 123.074 16.3072 121.157 15.1745 119.938C14.0419 118.718 12.2121 118.544 10.9052 119.676C9.68537 120.809 9.51112 122.726 10.6438 123.946C11.7765 125.165 13.6933 125.253 14.9131 124.207Z" fill="#525E61"/>
<path fill-rule="evenodd" clip-rule="evenodd" d="M38.0897 124.12C36.8699 122.987 36.6957 121.07 37.8284 119.85C38.961 118.63 40.7907 118.456 42.0977 119.589C43.3175 120.722 43.4917 122.638 42.359 123.858C41.2264 125.078 39.3096 125.165 38.0897 124.12Z" fill="#525E61"/>
<path fill-rule="evenodd" clip-rule="evenodd" d="M3.84781 114.013C4.80624 114.013 5.67751 113.229 5.67751 112.183C5.67751 111.225 4.89337 110.354 3.84781 110.354C2.88939 110.354 2.01807 111.138 2.01807 112.183C2.1052 113.229 2.88939 114.013 3.84781 114.013Z" fill="#A3BDC3"/>
<path fill-rule="evenodd" clip-rule="evenodd" d="M49.068 113.926C50.0264 113.926 50.8977 113.141 50.8977 112.096C50.8977 111.137 50.1135 110.266 49.068 110.266C48.1096 110.266 47.2383 111.05 47.2383 112.096C47.3254 113.054 48.1096 113.926 49.068 113.926Z" fill="#A3BDC3"/>
<path fill-rule="evenodd" clip-rule="evenodd" d="M3.84761 113.141C4.37039 113.141 4.80602 112.706 4.80602 112.183C4.80602 111.66 4.37039 111.225 3.84761 111.225C3.32484 111.225 2.88916 111.66 2.88916 112.183C2.88916 112.706 3.32484 113.141 3.84761 113.141Z" fill="#292F31"/>
<path fill-rule="evenodd" clip-rule="evenodd" d="M49.0678 113.054C49.5906 113.054 50.0262 112.619 50.0262 112.096C50.0262 111.573 49.5906 111.137 49.0678 111.137C48.545 111.137 48.1094 111.573 48.1094 112.096C48.1094 112.619 48.545 113.054 49.0678 113.054Z" fill="#292F31"/>
<path fill-rule="evenodd" clip-rule="evenodd" d="M12.9093 123.684C13.8677 123.684 14.739 122.9 14.739 121.854C14.739 120.896 13.9548 120.025 12.9093 120.025C11.9509 120.025 11.0796 120.809 11.0796 121.854C11.1667 122.9 11.9509 123.684 12.9093 123.684Z" fill="#A3BDC3"/>
<path fill-rule="evenodd" clip-rule="evenodd" d="M40.006 123.597C40.9644 123.597 41.8357 122.813 41.8357 121.767C41.8357 120.809 41.0516 119.938 40.006 119.938C39.0476 119.938 38.1763 120.722 38.1763 121.767C38.2634 122.813 39.0476 123.597 40.006 123.597Z" fill="#A3BDC3"/>
<path fill-rule="evenodd" clip-rule="evenodd" d="M12.9091 122.9C13.4319 122.9 13.8675 122.464 13.8675 121.942C13.8675 121.419 13.4319 120.983 12.9091 120.983C12.3863 120.983 11.9507 121.419 11.9507 121.942C11.9507 122.464 12.3863 122.9 12.9091 122.9Z" fill="#292F31"/>
<path fill-rule="evenodd" clip-rule="evenodd" d="M40.0063 122.726C40.5291 122.726 40.9647 122.29 40.9647 121.767C40.9647 121.244 40.5291 120.809 40.0063 120.809C39.4835 120.809 39.0479 121.244 39.0479 121.767C39.0479 122.377 39.4835 122.726 40.0063 122.726Z" fill="#292F31"/>
<path fill-rule="evenodd" clip-rule="evenodd" d="M14.5644 101.815C15.4357 101.815 16.1327 101.118 16.1327 100.246C16.1327 99.375 15.4357 98.678 14.5644 98.678C13.6931 98.678 12.9961 99.375 12.9961 100.246C12.9961 101.118 13.6931 101.815 14.5644 101.815Z" fill="#292F31"/>
<path fill-rule="evenodd" clip-rule="evenodd" d="M38.5249 101.727C39.3962 101.727 40.0932 101.03 40.0932 100.159C40.0932 99.2879 39.3962 98.5908 38.5249 98.5908C37.6536 98.5908 36.9565 99.2879 36.9565 100.159C36.9565 101.03 37.6536 101.727 38.5249 101.727Z" fill="#292F31"/>
<path fill-rule="evenodd" clip-rule="evenodd" d="M14.0417 100.769C14.3031 101.031 14.8259 101.031 15.0873 100.769C15.3487 100.508 15.3487 99.985 15.0873 99.7236C14.8259 99.4622 14.3031 99.4622 14.0417 99.7236C13.7804 99.985 13.7804 100.421 14.0417 100.769Z" fill="#525E61"/>
<path fill-rule="evenodd" clip-rule="evenodd" d="M39.0478 100.595C38.7864 100.856 38.2636 100.856 38.0022 100.595C37.7408 100.333 37.7408 99.8107 38.0022 99.5493C38.2636 99.2879 38.7864 99.2879 39.0478 99.5493C39.3963 99.8978 39.3091 100.333 39.0478 100.595Z" fill="#525E61"/>
</svg>
