<svg width="32" height="37" viewBox="0 0 32 37" fill="none" xmlns="http://www.w3.org/2000/svg">
<path d="M0.541216 5.50928H31.8262V6.20066H0.541216V5.50928Z" fill="#525E61"/>
<path d="M17.4799 7.51855H18.4521V28.1519H17.4799V7.51855Z" fill="#525E61"/>
<path fill-rule="evenodd" clip-rule="evenodd" d="M19.1435 6.09253H16.702C16.2483 6.09253 15.9026 6.45983 15.9026 6.91354C15.9026 7.36726 16.2699 7.73456 16.702 7.73456H19.1435C19.5972 7.73456 19.9429 7.36726 19.9429 6.91354C19.9429 6.45983 19.5972 6.09253 19.1435 6.09253Z" fill="#292F31"/>
<path fill-rule="evenodd" clip-rule="evenodd" d="M19.3594 30.2696H16.6155V28.93C16.6155 28.8004 16.7235 28.714 16.8315 28.714H19.1217C19.2514 28.714 19.3378 28.822 19.3378 28.93V30.2696H19.3594Z" fill="#292F31"/>
<path fill-rule="evenodd" clip-rule="evenodd" d="M16.6371 28.887C16.6587 28.7789 16.7451 28.6925 16.8531 28.6925H19.1433C19.2513 28.6925 19.3378 28.7789 19.3594 28.887H16.6371Z" fill="#525E61"/>
<path fill-rule="evenodd" clip-rule="evenodd" d="M18.7979 28.7358H17.199V28.066C17.199 27.9364 17.3071 27.85 17.4151 27.85H18.5818C18.7114 27.85 18.7979 27.958 18.7979 28.066V28.7358Z" fill="#292F31"/>
<path fill-rule="evenodd" clip-rule="evenodd" d="M17.199 28.0228C17.2206 27.9148 17.3071 27.85 17.4151 27.85H18.5818C18.6898 27.85 18.7762 27.9148 18.7979 28.0228H17.199Z" fill="#525E61"/>
<path fill-rule="evenodd" clip-rule="evenodd" d="M21.7145 30.1832L20.3965 31.4147L23.5725 34.2019L24.2207 33.5969L21.7145 30.1832ZM21.8009 31.6092C21.8657 31.5444 21.9737 31.5444 22.0385 31.6092L23.054 32.6895C23.1188 32.7543 23.1188 32.8623 23.054 32.9271C22.9892 32.992 22.8812 32.992 22.8163 32.9271L21.8009 31.8469C21.7145 31.782 21.7145 31.674 21.8009 31.6092Z" fill="#292F31"/>
<path fill-rule="evenodd" clip-rule="evenodd" d="M14.4335 30.1619L15.7515 31.3934L12.5754 34.1805L11.9273 33.5756L14.4335 30.1619ZM14.3471 31.5662C14.2823 31.5014 14.1742 31.5014 14.1094 31.5662L13.094 32.6465C13.0291 32.7113 13.0291 32.8194 13.094 32.8842C13.1588 32.949 13.2668 32.949 13.3316 32.8842L14.3471 31.8039C14.4119 31.7391 14.4119 31.631 14.3471 31.5662Z" fill="#292F31"/>
<path fill-rule="evenodd" clip-rule="evenodd" d="M21.6714 31.4795C21.3041 31.8252 20.7424 31.8036 20.3967 31.4363C20.051 31.069 20.0726 30.4857 20.4399 30.1616C20.8072 29.8159 21.3689 29.8375 21.7146 30.2048C22.0603 30.5505 22.0387 31.1339 21.6714 31.4795Z" fill="#525E61"/>
<path fill-rule="evenodd" clip-rule="evenodd" d="M14.455 31.4577C14.8223 31.8034 15.3841 31.7818 15.7298 31.4145C16.0754 31.0472 16.0538 30.4638 15.6865 30.1397C15.3192 29.7941 14.7575 29.8157 14.4118 30.183C14.0877 30.5286 14.1093 31.112 14.455 31.4577Z" fill="#525E61"/>
<path fill-rule="evenodd" clip-rule="evenodd" d="M24.2427 34.2451L23.1192 33.2512L21.1099 36.1248L21.65 36.6001L24.2427 34.2451ZM22.1253 35.563C22.0605 35.5198 22.0605 35.4334 22.1037 35.3686L22.8815 34.4395C22.9247 34.3747 23.0111 34.3747 23.076 34.4179C23.1408 34.4611 23.1408 34.5476 23.0976 34.6124L22.3198 35.5414C22.2766 35.6062 22.1901 35.6062 22.1253 35.563Z" fill="#292F31"/>
<path fill-rule="evenodd" clip-rule="evenodd" d="M11.8838 34.2232L13.0073 33.2294L15.0166 36.1029L14.4765 36.5782L11.8838 34.2232ZM14.0011 35.5412C14.066 35.498 14.066 35.4115 14.0227 35.3467L13.2449 34.4177C13.2017 34.3529 13.1153 34.3529 13.0505 34.3961C12.9857 34.4393 12.9857 34.5257 13.0289 34.5905L13.8067 35.5196C13.8715 35.5844 13.9579 35.5844 14.0011 35.5412Z" fill="#292F31"/>
<path fill-rule="evenodd" clip-rule="evenodd" d="M23.1838 34.3315C22.8813 34.0506 22.8381 33.5753 23.1189 33.2728C23.3998 32.9703 23.8535 32.9271 24.1776 33.208C24.4801 33.4889 24.5233 33.9642 24.2424 34.2667C23.9616 34.5691 23.4862 34.6124 23.1838 34.3315Z" fill="#525E61"/>
<path fill-rule="evenodd" clip-rule="evenodd" d="M11.9704 34.3101C11.6679 34.0292 11.6247 33.5539 11.9056 33.2514C12.1864 32.949 12.6402 32.9058 12.9643 33.1866C13.2667 33.4675 13.3099 33.9428 13.0291 34.2453C12.7482 34.5478 12.2729 34.591 11.9704 34.3101Z" fill="#525E61"/>
<path fill-rule="evenodd" clip-rule="evenodd" d="M21.1529 30.2479H15.0384C14.3471 30.2479 14.3471 31.3498 15.0384 31.3498H21.1529C21.8442 31.3714 21.8442 30.2479 21.1529 30.2479Z" fill="#A3BDC3"/>
<path fill-rule="evenodd" clip-rule="evenodd" d="M21.585 36.6648L21.5201 35.9302L19.8565 36.3839V36.4703L21.585 36.6648Z" fill="#F8A74F"/>
<path fill-rule="evenodd" clip-rule="evenodd" d="M14.5631 36.6218L14.6063 35.9088L16.2915 36.3625V36.449L14.5631 36.6218Z" fill="#F8A74F"/>
<path fill-rule="evenodd" clip-rule="evenodd" d="M20.9367 36.7513C20.6342 36.4704 20.591 35.9951 20.8719 35.6926C21.1528 35.3901 21.6065 35.3469 21.9306 35.6278C22.233 35.9087 22.2762 36.384 21.9954 36.6865C21.7145 36.9889 21.2392 37.0106 20.9367 36.7513Z" fill="#525E61"/>
<path fill-rule="evenodd" clip-rule="evenodd" d="M15.1893 36.7299C15.4918 36.4491 15.535 35.9737 15.2542 35.6712C14.9733 35.3688 14.5196 35.3256 14.1955 35.6064C13.893 35.8873 13.8498 36.3626 14.1307 36.6651C14.4116 36.9676 14.8869 36.9892 15.1893 36.7299Z" fill="#525E61"/>
<path fill-rule="evenodd" clip-rule="evenodd" d="M23.6806 34.2237C23.4429 34.2237 23.2268 34.0293 23.2268 33.77C23.2268 33.5323 23.4213 33.3163 23.6806 33.3163C23.9182 33.3163 24.1343 33.5107 24.1343 33.77C24.1127 34.0293 23.9182 34.2237 23.6806 34.2237Z" fill="#A3BDC3"/>
<path fill-rule="evenodd" clip-rule="evenodd" d="M12.4672 34.2019C12.2295 34.2019 12.0135 34.0074 12.0135 33.7482C12.0135 33.5105 12.2079 33.2944 12.4672 33.2944C12.7048 33.2944 12.9209 33.4889 12.9209 33.7482C12.8993 33.9858 12.7048 34.2019 12.4672 34.2019Z" fill="#A3BDC3"/>
<path fill-rule="evenodd" clip-rule="evenodd" d="M23.6808 34.0072C23.5512 34.0072 23.4431 33.8992 23.4431 33.7695C23.4431 33.6399 23.5512 33.5319 23.6808 33.5319C23.8104 33.5319 23.9185 33.6399 23.9185 33.7695C23.9185 33.8992 23.8104 34.0072 23.6808 34.0072Z" fill="#292F31"/>
<path fill-rule="evenodd" clip-rule="evenodd" d="M12.4674 33.9857C12.3378 33.9857 12.2298 33.8777 12.2298 33.748C12.2298 33.6184 12.3378 33.5104 12.4674 33.5104C12.5971 33.5104 12.7051 33.6184 12.7051 33.748C12.7051 33.8777 12.5971 33.9857 12.4674 33.9857Z" fill="#292F31"/>
<path fill-rule="evenodd" clip-rule="evenodd" d="M21.4335 36.6218C21.1958 36.6218 20.9798 36.4273 20.9798 36.1681C20.9798 35.9304 21.1742 35.7144 21.4335 35.7144C21.6712 35.7144 21.8872 35.9088 21.8872 36.1681C21.8656 36.4273 21.6712 36.6218 21.4335 36.6218Z" fill="#A3BDC3"/>
<path fill-rule="evenodd" clip-rule="evenodd" d="M14.7142 36.5999C14.4766 36.5999 14.2605 36.4055 14.2605 36.1462C14.2605 35.9086 14.455 35.6925 14.7142 35.6925C14.9519 35.6925 15.168 35.887 15.168 36.1462C15.1464 36.4055 14.9519 36.5999 14.7142 36.5999Z" fill="#A3BDC3"/>
<path fill-rule="evenodd" clip-rule="evenodd" d="M21.4337 36.4273C21.3041 36.4273 21.1961 36.3193 21.1961 36.1897C21.1961 36.0601 21.3041 35.952 21.4337 35.952C21.5634 35.952 21.6714 36.0601 21.6714 36.1897C21.6714 36.3193 21.5634 36.4273 21.4337 36.4273Z" fill="#292F31"/>
<path fill-rule="evenodd" clip-rule="evenodd" d="M14.7145 36.3841C14.5848 36.3841 14.4768 36.2761 14.4768 36.1465C14.4768 36.0168 14.5848 35.9088 14.7145 35.9088C14.8441 35.9088 14.9521 36.0168 14.9521 36.1465C14.9521 36.2977 14.8441 36.3841 14.7145 36.3841Z" fill="#292F31"/>
<path fill-rule="evenodd" clip-rule="evenodd" d="M21.0232 31.1988C20.8072 31.1988 20.6343 31.026 20.6343 30.8099C20.6343 30.5939 20.8072 30.421 21.0232 30.421C21.2393 30.421 21.4121 30.5939 21.4121 30.8099C21.4121 31.026 21.2393 31.1988 21.0232 31.1988Z" fill="#292F31"/>
<path fill-rule="evenodd" clip-rule="evenodd" d="M15.0813 31.177C14.8653 31.177 14.6924 31.0041 14.6924 30.7881C14.6924 30.572 14.8653 30.3992 15.0813 30.3992C15.2974 30.3992 15.4702 30.572 15.4702 30.7881C15.4702 31.0041 15.2974 31.177 15.0813 31.177Z" fill="#292F31"/>
<path fill-rule="evenodd" clip-rule="evenodd" d="M21.1526 30.9393C21.0877 31.0042 20.9581 31.0042 20.8933 30.9393C20.8285 30.8745 20.8285 30.7449 20.8933 30.6801C20.9581 30.6153 21.0877 30.6153 21.1526 30.6801C21.2174 30.7449 21.2174 30.8529 21.1526 30.9393Z" fill="#525E61"/>
<path fill-rule="evenodd" clip-rule="evenodd" d="M14.9519 30.896C15.0167 30.9608 15.1463 30.9608 15.2112 30.896C15.276 30.8312 15.276 30.7016 15.2112 30.6367C15.1463 30.5719 15.0167 30.5719 14.9519 30.6367C14.8655 30.7232 14.8871 30.8312 14.9519 30.896Z" fill="#525E61"/>
<path d="M30.8539 0H31.8262V6.17921H30.8539V0Z" fill="#525E61"/>
<path d="M0.541418 0H1.51367V6.17921H0.541418V0Z" fill="#525E61"/>
</svg>
